<?xml version="1.0" encoding="UTF-8"?>
<svg id="Calque_4" data-name="Calque 4" xmlns="http://www.w3.org/2000/svg" xmlns:xlink="http://www.w3.org/1999/xlink" viewBox="0 0 152.72 47.02">
  <defs>
    <style>
      .cls-1 {
        fill: #f6fbff;
      }

      .cls-2 {
        fill: #ddecff;
      }

      .cls-3 {
        fill: none;
      }
    </style>
    <clipPath id="clippath">
      <rect class="cls-3" x="-787.75" width="750" height="500"/>
    </clipPath>
  </defs>
  <path class="cls-2" d="M59.39,46.12c31.19,1.16,62.74,2.28,93.33-3.96-5.13,1.05-12.1-.5-17.36-.68-6.03-.21-12.06-.4-18.09-.56-12.06-.32-24.13-.54-36.19-.65-23.25-.22-46.67-.38-69.84,.78-3.32,.17-8.6,.5-11.23,2.74,9.07,1.79,19.6,.87,28.9,1.21,10.16,.38,20.33,.75,30.49,1.13Z"/>
  <path class="cls-1" d="M10.38,41.37h126.61c-.48-12.21-10.53-21.96-22.86-21.96h0C109.06,7.98,97.63,0,84.32,0c-15.99,0-29.29,11.53-32.05,26.72-.58-.06-1.16-.1-1.75-.1-5.16,0-9.73,2.5-12.59,6.34-.98-.24-2-.37-3.05-.37-3.73,0-7.08,1.61-9.4,4.16-1.55-.81-3.32-1.27-5.2-1.27-4.28,0-8,2.38-9.9,5.9Z"/>
</svg>