<?xml version="1.0" encoding="UTF-8"?>
<svg id="Calque_6" data-name="Calque 6" xmlns="http://www.w3.org/2000/svg" viewBox="0 0 261.36 355.39">
  <defs>
    <style>
      .cls-1 {
        fill: #fff;
      }

      .cls-2 {
        fill: #8a2431;
      }

      .cls-3 {
        fill: #f5f3f4;
      }

      .cls-4 {
        fill: #ddbfa7;
      }

      .cls-5 {
        fill: #4a2a15;
      }

      .cls-6 {
        fill: #3f2514;
      }

      .cls-7 {
        fill: #3b2112;
      }

      .cls-8 {
        fill: #b9735e;
      }

      .cls-9 {
        fill: #d81b1f;
      }

      .cls-10 {
        fill: none;
        stroke: #9c5a2a;
        stroke-linecap: round;
        stroke-miterlimit: 10;
        stroke-width: 5px;
      }

      .cls-11 {
        fill: #ebc9ae;
      }

      .cls-12 {
        fill: #ae2d3f;
      }
    </style>
  </defs>
  <g>
    <path class="cls-8" d="M217.73,316.22c-12.97-7.61-27.17-13.5-42.19-18.25l-12.38,34.17,6.32,5.84c17.58,4.68,34.09,8.71,46.23,10.07l2.02-31.83Z"/>
    <path class="cls-5" d="M214.4,349.83c.18,.1,.36,.17,.55,.26,.5,.22,1.01,.42,1.51,.6,.06,.04,.14,.06,.2,.07,7.48,2.24,16.44-3,20.59-12.36,3.99-8.99,2.2-18.7-3.86-23.03-.78-.49-1.6-.91-2.45-1.29-.34-.15-.67-.29-1.01-.41-10-3.83-21.28,.59-25.55,10.2-4.35,9.77,.15,21.26,10.01,25.96Z"/>
    <path class="cls-7" d="M214.4,349.83c.26,.15,.53,.29,.82,.41,.4,.18,.82,.34,1.24,.45,.06,.04,.14,.06,.2,.07,7.48,2.24,16.44-3,20.59-12.36,3.99-8.99,2.2-18.7-3.86-23.03-.66-.47-1.38-.88-2.14-1.22-.43-.19-.87-.35-1.32-.48-7.51-2.33-16.54,2.92-20.72,12.33-4.26,9.6-1.93,20.03,5.19,23.84Z"/>
  </g>
  <g>
    <path class="cls-8" d="M47.76,316.22c12.97-7.61,27.17-13.5,42.19-18.25l12.38,34.17-6.32,5.84c-17.58,4.68-34.09,8.71-46.23,10.07l-2.02-31.83Z"/>
    <path class="cls-5" d="M51.09,349.83c-.18,.1-.36,.17-.55,.26-.5,.22-1.01,.42-1.51,.6-.06,.04-.14,.06-.2,.07-7.48,2.24-16.44-3-20.59-12.36-3.99-8.99-2.2-18.7,3.86-23.03,.78-.49,1.6-.91,2.45-1.29,.34-.15,.67-.29,1.01-.41,10-3.83,21.28,.59,25.55,10.2,4.35,9.77-.15,21.26-10.01,25.96Z"/>
    <path class="cls-7" d="M51.09,349.83c-.26,.15-.53,.29-.82,.41-.4,.18-.82,.34-1.24,.45-.06,.04-.14,.06-.2,.07-7.48,2.24-16.44-3-20.59-12.36-3.99-8.99-2.2-18.7,3.86-23.03,.66-.47,1.38-.88,2.14-1.22,.43-.19,.87-.35,1.32-.48,7.51-2.33,16.54,2.92,20.72,12.33,4.26,9.6,1.93,20.03-5.19,23.84Z"/>
  </g>
  <path class="cls-8" d="M79.46,290.7c10.19-29.21,24.01-61.13,53.64-61.13s42.43,35.95,53.64,61.13c9.44,21.21-23.46,51.79-53.09,51.79s-63.66-24.63-54.19-51.79Z"/>
  <ellipse class="cls-4" cx="133.12" cy="297.97" rx="25.39" ry="43.2"/>
  <g id="pâteAvant">
    <path class="cls-5" d="M173.96,346.53h-24.63c-2.34-.05-6.5-2.59-3.63-7.23,3.01-4.86,2.34-11.31,6.89-9.6,4.21,1.58,21.32,1.63,21.32,1.63,2.44-.08,4.45,2.53,4.45,5.77v3.65c0,3.23-1.99,5.83-4.41,5.78Z"/>
    <path class="cls-8" d="M178.37,325.16c0,5.02-3.44,9.09-7.68,9.09-1.62,0-3.13-.6-4.37-1.61-1.4,1.78-3.4,2.9-5.63,2.9-1.59,0-3.08-.57-4.31-1.55-.6,.17-1.22,.26-1.86,.26-4.24,0-7.68-4.07-7.68-9.09,0-1.4,.27-2.72,.75-3.9,.32-.78,.49-1.64,.56-2.51,.05-.65,.19-1.28,.34-1.91,4.41-18.76,2.27-40.26-3.84-63.4l23.73-1.52,8.49,67.01c.08,.59,.23,1.17,.48,1.69,.66,1.34,1.03,2.89,1.03,4.54Z"/>
  </g>
  <g id="pâteAvant-2" data-name="pâteAvant">
    <path class="cls-5" d="M91.84,346.53h24.63c2.34-.05,6.5-2.59,3.63-7.23s-2.34-11.31-6.89-9.6c-4.21,1.58-21.32,1.63-21.32,1.63-2.44-.08-4.45,2.53-4.45,5.77v3.65c0,3.23,1.99,5.83,4.41,5.78Z"/>
    <path class="cls-8" d="M87.43,325.16c0,5.02,3.44,9.09,7.68,9.09,1.62,0,3.13-.6,4.37-1.61,1.4,1.78,3.4,2.9,5.63,2.9,1.59,0,3.08-.57,4.31-1.55,.6,.17,1.22,.26,1.86,.26,4.24,0,7.68-4.07,7.68-9.09,0-1.4-.27-2.72-.75-3.9-.32-.78-.49-1.64-.56-2.51-.05-.65-.19-1.28-.34-1.91-4.41-18.76-2.27-40.26,3.84-63.4l-23.73-1.52-8.49,67.01c-.08,.59-.23,1.17-.48,1.69-.66,1.34-1.03,2.89-1.03,4.54Z"/>
  </g>
  <g id="_écharpe" data-name="écharpe">
    <path class="cls-2" d="M137.75,223.18l42.17-12.08c2.41,27.91,11.16,54.03,21.58,79.56,3.11,7.61-.11,16.3-7.22,19.36-3.87,1.67-8.18,2.19-12.86,1.73-3.82-.37-7.38-2.43-9.84-5.6-12.26-15.75-23.26-46.75-33.83-82.97Z"/>
    <path class="cls-12" d="M97.64,208.27h67.35c13.42,0,24.32,10.9,24.32,24.32v17.15c0,3.97-3.23,7.2-7.2,7.2H80.52c-3.97,0-7.2-3.23-7.2-7.2v-17.15c0-13.42,10.9-24.32,24.32-24.32Z" transform="translate(262.63 465.21) rotate(-180)"/>
  </g>
  <g id="têteFace">
    <path class="cls-8" d="M201.27,160.23c0,30.52-15.11,57.09-37.39,70.76-.01,.01-.02,.01-.03,.02-10.19,6.24-21.86,9.78-34.28,9.78-11.67,0-22.69-3.13-32.41-8.69-23.32-13.29-39.3-40.48-39.3-71.88,0-44.5,32.11-80.55,71.71-80.55s71.71,36.06,71.71,80.55Z"/>
    <g id="zeux">
      <g>
        <ellipse cx="98.52" cy="165.88" rx="5.77" ry="12.25"/>
        <ellipse class="cls-1" cx="100.09" cy="160.51" rx="1.9" ry="1.95"/>
      </g>
      <g>
        <ellipse cx="161.77" cy="165.88" rx="5.77" ry="12.25"/>
        <ellipse class="cls-1" cx="163.34" cy="160.51" rx="1.9" ry="1.95"/>
      </g>
    </g>
    <g id="bois">
      <path class="cls-6" d="M76.64,118.75c-1.21,2.53-3.68,4-6.23,4-1.03,0-2.08-.24-3.06-.74l-30.87-15.64-2.91-20.34-25.53-20.79c-2.25-1.83-2.64-5.2-.84-7.52,1.78-2.32,5.05-2.71,7.31-.87l16.85,13.72-5.3-36.88c-.32-.14-.65-.32-.95-.55L5.82,18.94c-2.34-1.73-2.88-5.07-1.2-7.47,1.68-2.4,4.93-2.95,7.26-1.24l12.07,8.9-.28-1.93c-.55-3.89,2.06-7.52,5.85-8.1,3.78-.58,7.32,2.12,7.87,6.02l2.89,20.11,22.5-10.53c2.61-1.23,5.7-.04,6.89,2.65,1.19,2.69,.03,5.87-2.58,7.09l-25.23,11.82,5.15,35.84,21.24-9.95c2.61-1.23,5.7-.04,6.89,2.65,1.19,2.69,.03,5.87-2.58,7.09l-23.98,11.22,.54,3.75,24.34,12.32c3.43,1.75,4.86,6.02,3.17,9.56Z"/>
      <path class="cls-6" d="M182.83,118.75c1.21,2.53,3.68,4,6.23,4,1.03,0,2.08-.24,3.06-.74l30.87-15.64,2.91-20.34,25.53-20.79c2.25-1.83,2.64-5.2,.84-7.52-1.78-2.32-5.05-2.71-7.31-.87l-16.85,13.72,5.3-36.88c.32-.14,.65-.32,.95-.55l19.27-14.21c2.34-1.73,2.88-5.07,1.2-7.47-1.68-2.4-4.93-2.95-7.26-1.24l-12.07,8.9,.28-1.93c.55-3.89-2.06-7.52-5.85-8.1-3.78-.58-7.32,2.12-7.87,6.02l-2.89,20.11-22.5-10.53c-2.61-1.23-5.7-.04-6.89,2.65-1.19,2.69-.03,5.87,2.58,7.09l25.23,11.82-5.15,35.84-21.24-9.95c-2.61-1.23-5.7-.04-6.89,2.65-1.19,2.69-.03,5.87,2.58,7.09l23.98,11.22-.54,3.75-24.34,12.32c-3.43,1.75-4.86,6.02-3.17,9.56Z"/>
    </g>
    <g id="bonnet">
      <path class="cls-12" d="M82.41,79.52c11.29-13.88,25.92-11.05,28.8-11.27,2.88-.23,40.76,0,44.97,0s14.18,3.38,18.39,7.67c4.21,4.28,12.18,20.97,12.18,20.97l-25.03,10.37s-68.45,.45-70.22,0-16.61-5.64-16.61-5.64l-1.55-5.19s3.77-10.37,9.08-16.91Z"/>
      <path class="cls-3" d="M82.85,99.24c7.49-6.89,12.95-5.13,17.62,0,5.26-5.41,10.61-6.32,16.09-.83,4.66-4.84,9.79-5.03,15.47,0,5.48-7.19,11.59-7.15,18.23-1,5.04-4.6,8.63-2.55,12.1,0,4.16-6.97,9.44-8.48,16.24-2.5,9.06-4.8,14.43-1.81,17.62,5.82,7.25,5.4,6.39,10.9-1.84,16.48-3.64,10.74-9.34,12.32-17.31,3.83-5.39,7.43-11.24,6.93-17.46,0-3.77,5.67-9.12,6.17-15.93,1.83-4.76,4.94-9.88,4.68-15.32,0-6.35,6.43-12.24,6-17.77,0-2.78,4.44-7.42,4.78-13.48,2-3.63,5.83-8.26,6.88-14.25,1.5-9.36,5.12-14.86,2.44-17.77-5.49-10.59-5.5-8.88-11.19-.77-16.97,3-10.15,9.02-12.12,18.54-4.66Z"/>
      <path class="cls-3" d="M129.41,43.42c-2.16-1.29-4.36-.76-6.6,1.44-3.37,.01-4.85,1.67-5.46,4.08-3.03,.9-4.02,2.98-3.38,6.02-2.11,1.79-2.36,4.09-.71,6.91-1.49,2.93-.98,5.19,2.09,6.61,0,3.1,1.38,4.94,4.52,5.16,1.64,3.03,3.74,3.76,6.17,2.83,2.65,1.62,4.91,1.69,6.75,0,3.19,1.27,5.46,.75,6.17-2.83,3.66-.06,5.1-1.82,4.52-5.16,2.42-1.51,3.58-3.53,2.09-6.61,1.83-2.63,1.81-4.97-.71-6.91,.12-3.63-1.12-5.48-3.38-6.02,.43-2.38-.91-3.96-5.46-4.08-.54-2.5-2.88-2.8-6.6-1.44Z"/>
    </g>
    <path class="cls-4" d="M173.08,214.25c0,6.32-3.43,12.13-9.2,16.74-.01,.01-.02,.01-.03,.02-10.19,6.24-21.86,9.78-34.28,9.78-11.67,0-22.69-3.13-32.41-8.69-6.65-4.77-10.67-11.02-10.67-17.86,0-14.99,19.01-36.12,42.93-36.12s43.67,21.12,43.67,36.12Z"/>
    <ellipse class="cls-9" cx="129.93" cy="194.14" rx="19.64" ry="14.13"/>
    <path class="cls-10" d="M119.26,218.02c7.5,9.91,14.75,9.91,21.74,0"/>
    <g id="oreilleL">
      <path class="cls-8" d="M-.13,124.78c-1.49-9.08,9.64-18.49,22.64-17.74,13,.75,35.2,15.48,44.69,28.56s2.29,21.5-4.09,19.99S1.62,135.46-.13,124.78Z"/>
      <path class="cls-11" d="M5.71,129.36c-3.66-3.58,6.13-14.36,15.19-12.63,9.06,1.73,34.32,18.64,38.05,24.73,3.72,6.09-3.87,4.81-6.79,4.28-2.92-.53-43.52-13.53-46.45-16.38Z"/>
    </g>
    <g id="oreilleR">
      <path class="cls-8" d="M261.22,124.78c1.49-9.08-9.64-18.49-22.64-17.74-13,.75-35.2,15.48-44.69,28.56-9.49,13.08-2.29,21.5,4.09,19.99s61.49-20.14,63.24-30.82Z"/>
      <path class="cls-11" d="M255.38,129.36c3.66-3.58-6.13-14.36-15.19-12.63-9.06,1.73-34.32,18.64-38.05,24.73-3.72,6.09,3.87,4.81,6.79,4.28s43.52-13.53,46.45-16.38Z"/>
    </g>
  </g>
</svg>