<?xml version="1.0" encoding="UTF-8"?>
<svg id="Calque_2" data-name="Calque 2" xmlns="http://www.w3.org/2000/svg" xmlns:xlink="http://www.w3.org/1999/xlink" viewBox="0 0 226.27 355.39">
  <defs>
    <style>
      .cls-1 {
        fill: url(#Dégradé_sans_nom_16);
      }

      .cls-2 {
        fill: #fff;
      }

      .cls-3 {
        fill: #f5f3f4;
      }

      .cls-4 {
        fill: #ddbfa7;
      }

      .cls-5 {
        fill: #ff726a;
      }

      .cls-6 {
        fill: #4a2a15;
      }

      .cls-7 {
        fill: #3f2514;
      }

      .cls-8 {
        fill: #1e5c29;
      }

      .cls-9 {
        fill: #b05536;
      }

      .cls-10 {
        fill: #d81418;
      }

      .cls-11 {
        fill: none;
        stroke: #9c5a2a;
        stroke-linecap: round;
        stroke-miterlimit: 10;
        stroke-width: 5px;
      }

      .cls-12 {
        fill: #164822;
      }

      .cls-13 {
        fill: #ebc9ae;
      }

      .cls-14 {
        fill: #ce733e;
      }
    </style>
    <radialGradient id="Dégradé_sans_nom_16" data-name="Dégradé sans nom 16" cx="113.14" cy="161.97" fx="113.14" fy="161.97" r="44" gradientTransform="translate(0 29.04) scale(1 .82)" gradientUnits="userSpaceOnUse">
      <stop offset=".12" stop-color="#d81418"/>
      <stop offset=".2" stop-color="#db1e26" stop-opacity=".9"/>
      <stop offset=".6" stop-color="#ee4f6d" stop-opacity=".42"/>
      <stop offset=".87" stop-color="#fa6e9a" stop-opacity=".12"/>
      <stop offset="1" stop-color="#ff7bac" stop-opacity="0"/>
    </radialGradient>
  </defs>
  <g id="pâteAvant">
    <path class="cls-6" d="M14.25,339.83l32.43-.74c3.38-.08,6.11-4.01,6.17-8.88l.04-3.75c.06-4.95-2.67-9.04-6.1-9.17l-32.47-1.21c-3.52-.13-6.43,3.95-6.43,9.02v5.7c0,5.04,2.87,9.1,6.37,9.02Z"/>
    <path class="cls-14" d="M7.88,314.79c0,5.88,4.97,10.65,11.09,10.65,2.34,0,4.52-.7,6.31-1.89,2.02,2.09,4.91,3.4,8.13,3.4,2.3,0,4.44-.67,6.22-1.82,.86,.2,1.76,.31,2.68,.31,6.12,0,11.09-4.77,11.09-10.65,0-1.63-.39-3.19-1.08-4.57-.57-1.15-.82-2.43-.85-3.7l-1.33-47.01-27.82-30.51-12.26,78.51c-.11,.7-.33,1.37-.69,1.97-.95,1.57-1.49,3.39-1.49,5.32Z"/>
  </g>
  <g id="pâteAvant-2" data-name="pâteAvant">
    <path class="cls-6" d="M136.71,339.83l-32.43-.74c-3.38-.08-6.11-4.01-6.17-8.88l-.04-3.75c-.06-4.95,2.67-9.04,6.1-9.17l32.47-1.21c3.52-.13,6.43,3.95,6.43,9.02v5.7c0,5.04-2.87,9.1-6.37,9.02Z"/>
    <path class="cls-9" d="M143.08,314.79c0,5.88-4.97,10.65-11.09,10.65-2.34,0-4.52-.7-6.31-1.89-2.02,2.09-4.91,3.4-8.13,3.4-2.3,0-4.44-.67-6.22-1.82-.86,.2-1.76,.31-2.68,.31-6.12,0-11.09-4.77-11.09-10.65s.39-3.19,1.08-4.57c.57-1.15,.82-2.43,.85-3.7l1.33-47.01,27.82-30.51,12.26,78.51c.11,.7,.33,1.37,.69,1.97,.95,1.57,1.49,3.39,1.49,5.32Z"/>
  </g>
  <g id="pâteAvant-3" data-name="pâteAvant">
    <path class="cls-6" d="M172.02,352.02l-32.43-.55c-3.38-.06-6.11-3-6.17-6.66l-.04-2.81c-.06-3.71,2.67-6.78,6.1-6.87l32.47-.91c3.52-.1,6.43,2.96,6.43,6.77v4.27c0,3.78-2.87,6.83-6.37,6.77Z"/>
    <path class="cls-14" d="M178.39,326.98c0,5.88-4.97,10.65-11.09,10.65-2.34,0-4.52-.7-6.31-1.89-2.02,2.09-4.91,3.4-8.13,3.4-2.3,0-4.44-.67-6.22-1.82-.86,.2-1.76,.31-2.68,.31-6.12,0-11.09-4.77-11.09-10.65,0-1.63,.39-3.19,1.08-4.57,.57-1.15,.82-2.43,.85-3.7l1.33-47.01,27.82-30.51,12.26,78.51c.11,.7,.33,1.37,.69,1.97,.95,1.57,1.49,3.39,1.49,5.32Z"/>
  </g>
  <g id="pâteAvant-4" data-name="pâteAvant">
    <path class="cls-6" d="M55.09,352.02l32.43-.55c3.38-.06,6.11-3,6.17-6.66l.04-2.81c.06-3.71-2.67-6.78-6.1-6.87l-32.47-.91c-3.52-.1-6.43,2.96-6.43,6.77v4.27c0,3.78,2.87,6.83,6.37,6.77Z"/>
    <path class="cls-14" d="M48.72,326.98c0,5.88,4.97,10.65,11.09,10.65,2.34,0,4.52-.7,6.31-1.89,2.02,2.09,4.91,3.4,8.13,3.4,2.3,0,4.44-.67,6.22-1.82,.86,.2,1.76,.31,2.68,.31,6.12,0,11.09-4.77,11.09-10.65,0-1.63-.39-3.19-1.08-4.57-.57-1.15-.82-2.43-.85-3.7l-1.33-47.01-27.82-30.51-12.26,78.51c-.11,.7-.33,1.37-.69,1.97-.95,1.57-1.49,3.39-1.49,5.32Z"/>
  </g>
  <g id="queue">
    <path class="cls-14" d="M8.54,161.98c21.03-.57,37.4,16.58,40.05,32.34s-46.97,1.48-40.05-32.34Z"/>
    <path class="cls-4" d="M13.03,169.2c1.3,2.27,2.33,4.01,3.33,5.95,1.06,1.91,1.39,4.14,2.28,6.14,1.38,3.05,2.94,6.08,4.98,8.75,.68,.84,1.41,1.75,2.38,2.22,.28,.09,.18,.54-.11,.49-4.76-.69-13.18-11.36-14.25-15.93-.53-2.5-.58-5.35,.89-7.63,.12-.18,.4-.16,.5,.03h0Z"/>
  </g>
  <g id="corp">
    <path class="cls-14" d="M16.01,229.08c0-34.87,30.57-55.2,75.66-55.2,41.79,0,75.66,6.07,75.66,55.2,0,51.89-33.88,51.89-75.66,51.89s-75.66-6.03-75.66-51.89Z"/>
    <circle class="cls-4" cx="42.28" cy="194.32" r="4.8"/>
    <circle class="cls-4" cx="52.39" cy="189.52" r="3.66"/>
    <circle class="cls-4" cx="51.37" cy="197.73" r="2.65"/>
    <ellipse class="cls-4" cx="109.18" cy="228.99" rx="40.75" ry="50.46"/>
  </g>
  <g id="_écharpe" data-name="écharpe">
    <path class="cls-12" d="M100.54,191.03H61.45c4.79,23.05,3.7,46.12,1.04,69.1-.79,6.85,4.09,13.11,10.94,13.94,3.72,.45,7.54-.13,11.44-1.57,3.18-1.18,5.72-3.67,7.05-6.79,6.63-15.52,8.45-43.05,8.61-74.68Z"/>
    <path class="cls-8" d="M67.82,176.63h88.93c3.97,0,7.2,3.23,7.2,7.2v9.28c0,13.42-10.9,24.32-24.32,24.32h-54.69c-13.42,0-24.32-10.9-24.32-24.32v-9.28c0-3.97,3.23-7.2,7.2-7.2Z"/>
  </g>
  <g id="têteFace">
    <path class="cls-14" d="M174.31,132.34c0,26.4-13.07,49.37-32.34,61.2-.01,.01-.02,.01-.03,.02-8.81,5.39-18.91,8.46-29.65,8.46-10.09,0-19.62-2.71-28.03-7.51-20.17-11.5-33.99-35.01-33.99-62.16,0-38.48,27.77-69.67,62.02-69.67s62.02,31.18,62.02,69.67Z"/>
    <g id="zeux">
      <g>
        <ellipse cx="85.44" cy="137.23" rx="4.99" ry="10.6"/>
        <ellipse class="cls-2" cx="86.8" cy="132.58" rx="1.64" ry="1.69"/>
      </g>
      <g>
        <ellipse cx="140.14" cy="137.23" rx="4.99" ry="10.6"/>
        <ellipse class="cls-2" cx="141.5" cy="132.58" rx="1.64" ry="1.69"/>
      </g>
    </g>
    <g id="bois">
      <path class="cls-7" d="M66.52,96.46c-1.05,2.19-3.18,3.46-5.39,3.46-.89,0-1.8-.21-2.65-.64l-26.7-13.52-2.52-17.59L7.18,50.19c-1.95-1.58-2.28-4.5-.73-6.5,1.54-2.01,4.37-2.35,6.32-.75l14.57,11.87-4.58-31.9c-.28-.12-.56-.28-.82-.47L5.27,10.14c-2.02-1.49-2.49-4.38-1.04-6.46,1.45-2.08,4.26-2.55,6.28-1.07l10.44,7.7-.24-1.67c-.48-3.37,1.78-6.5,5.06-7.01,3.27-.5,6.33,1.83,6.81,5.21l2.5,17.39,19.46-9.11c2.26-1.06,4.93-.03,5.96,2.3,1.03,2.33,.03,5.07-2.23,6.13l-21.82,10.22,4.45,31,18.37-8.6c2.26-1.06,4.93-.03,5.96,2.3,1.03,2.33,.03,5.07-2.23,6.13l-20.74,9.71,.47,3.24,21.05,10.65c2.97,1.51,4.2,5.21,2.74,8.26Z"/>
      <path class="cls-7" d="M158.36,96.46c1.05,2.19,3.18,3.46,5.39,3.46,.89,0,1.8-.21,2.65-.64l26.7-13.52,2.52-17.59,22.08-17.98c1.95-1.58,2.28-4.5,.73-6.5-1.54-2.01-4.37-2.35-6.32-.75l-14.57,11.87,4.58-31.9c.28-.12,.56-.28,.82-.47l16.67-12.29c2.02-1.49,2.49-4.38,1.04-6.46-1.45-2.08-4.26-2.55-6.28-1.07l-10.44,7.7,.24-1.67c.48-3.37-1.78-6.5-5.06-7.01-3.27-.5-6.33,1.83-6.81,5.21l-2.5,17.39-19.46-9.11c-2.26-1.06-4.93-.03-5.96,2.3-1.03,2.33-.03,5.07,2.23,6.13l21.82,10.22-4.45,31-18.37-8.6c-2.26-1.06-4.93-.03-5.96,2.3-1.03,2.33-.03,5.07,2.23,6.13l20.74,9.71-.47,3.24-21.05,10.65c-2.97,1.51-4.2,5.21-2.74,8.26Z"/>
    </g>
    <g id="bonnet">
      <path class="cls-10" d="M71.5,62.54c9.76-12,22.42-9.56,24.91-9.75s35.25,0,38.89,0,12.26,2.93,15.9,6.63,10.54,18.14,10.54,18.14l-21.65,8.97s-59.2,.39-60.73,0-14.37-4.88-14.37-4.88l-1.34-4.49s3.26-8.97,7.85-14.63Z"/>
      <path class="cls-3" d="M71.88,79.59c6.48-5.96,11.2-4.44,15.24,0,4.55-4.68,9.17-5.47,13.91-.72,4.03-4.18,8.47-4.35,13.38,0,4.74-6.22,10.02-6.19,15.77-.86,4.36-3.98,7.46-2.21,10.47,0,3.6-6.03,8.16-7.33,14.04-2.16,7.83-4.15,12.48-1.56,15.24,5.04,6.27,4.67,5.53,9.42-1.59,14.25-3.15,9.28-8.08,10.65-14.97,3.31-4.66,6.43-9.72,5.99-15.1,0-3.26,4.9-7.88,5.34-13.78,1.58-4.11,4.27-8.55,4.05-13.25,0-5.49,5.56-10.59,5.19-15.37,0-2.4,3.84-6.42,4.13-11.66,1.73-3.14,5.04-7.14,5.95-12.32,1.3-8.1,4.43-12.85,2.11-15.37-4.75-9.16-4.76-7.68-9.68-.66-14.68,2.6-8.77,7.81-10.48,16.03-4.03Z"/>
      <path class="cls-3" d="M112.15,31.32c-1.87-1.11-3.77-.66-5.71,1.25-2.91,.01-4.19,1.44-4.72,3.53-2.62,.78-3.48,2.58-2.92,5.2-1.83,1.55-2.04,3.54-.61,5.98-1.29,2.53-.85,4.49,1.8,5.72,0,2.68,1.2,4.27,3.91,4.47,1.42,2.62,3.24,3.25,5.33,2.44,2.29,1.4,4.25,1.46,5.84,0,2.76,1.1,4.72,.65,5.33-2.44,3.16-.05,4.41-1.58,3.91-4.47,2.09-1.31,3.1-3.05,1.8-5.72,1.58-2.28,1.57-4.3-.61-5.98,.1-3.14-.97-4.74-2.92-5.2,.38-2.06-.79-3.42-4.72-3.53-.46-2.16-2.49-2.43-5.71-1.25Z"/>
    </g>
    <path class="cls-4" d="M149.93,179.06c0,5.47-2.97,10.49-7.96,14.48-.01,.01-.02,.01-.03,.02-8.81,5.39-18.91,8.46-29.65,8.46-10.09,0-19.62-2.71-28.03-7.51-5.75-4.13-9.23-9.53-9.23-15.45,0-12.97,16.44-31.24,37.13-31.24s37.77,18.27,37.77,31.24Z"/>
    <ellipse class="cls-5" cx="112.6" cy="161.67" rx="16.99" ry="12.22"/>
    <path class="cls-11" d="M103.38,182.32c6.49,8.57,12.75,8.57,18.81,0"/>
    <g id="oreilleL">
      <path class="cls-14" d="M.12,101.68c-1.29-7.86,8.34-15.99,19.58-15.34,11.24,.65,30.44,13.39,38.65,24.7,8.21,11.31,1.98,18.59-3.54,17.29C49.29,127.03,1.63,110.91,.12,101.68Z"/>
      <path class="cls-13" d="M5.17,105.64c-3.17-3.09,5.31-12.42,13.14-10.92s29.68,16.12,32.91,21.39c3.22,5.27-3.35,4.16-5.87,3.71S7.7,108.11,5.17,105.64Z"/>
    </g>
    <g id="oreilleR">
      <path class="cls-14" d="M226.15,101.68c1.29-7.86-8.34-15.99-19.58-15.34-11.24,.65-30.44,13.39-38.65,24.7-8.21,11.31-1.98,18.59,3.54,17.29s53.18-17.42,54.69-26.65Z"/>
      <path class="cls-13" d="M221.1,105.64c3.17-3.09-5.31-12.42-13.14-10.92-7.83,1.5-29.68,16.12-32.91,21.39s3.35,4.16,5.87,3.71,37.64-11.7,40.17-14.17Z"/>
    </g>
  </g>
  <ellipse class="cls-1" cx="113.14" cy="161.97" rx="47.3" ry="40.43"/>
</svg>