<?xml version="1.0" encoding="UTF-8"?>
<svg id="Calque_4" data-name="Calque 4" xmlns="http://www.w3.org/2000/svg" xmlns:xlink="http://www.w3.org/1999/xlink" viewBox="0 0 322.5 355.39">
  <defs>
    <style>
      .cls-1 {
        fill: url(#Dégradé_sans_nom_16);
      }

      .cls-2 {
        fill: #fff;
      }

      .cls-3 {
        fill: #f5f3f4;
      }

      .cls-4 {
        fill: #ddbfa7;
      }

      .cls-5 {
        fill: #ff726a;
      }

      .cls-6 {
        fill: #4a2a15;
      }

      .cls-7 {
        fill: #3f2514;
      }

      .cls-8 {
        fill: #1e5c29;
      }

      .cls-9 {
        fill: #d81418;
      }

      .cls-10 {
        fill: none;
        stroke: #9c5a2a;
        stroke-linecap: round;
        stroke-miterlimit: 10;
        stroke-width: 5px;
      }

      .cls-11 {
        fill: #164822;
      }

      .cls-12 {
        fill: #ebc9ae;
      }

      .cls-13 {
        fill: #ce733e;
      }
    </style>
    <radialGradient id="Dégradé_sans_nom_16" data-name="Dégradé sans nom 16" cx="114.25" cy="166.89" fx="114.25" fy="166.89" r="44" gradientTransform="translate(0 29.92) scale(1 .82)" gradientUnits="userSpaceOnUse">
      <stop offset=".12" stop-color="#d81418"/>
      <stop offset=".2" stop-color="#db1e26" stop-opacity=".9"/>
      <stop offset=".6" stop-color="#ee4f6d" stop-opacity=".42"/>
      <stop offset=".87" stop-color="#fa6e9a" stop-opacity=".12"/>
      <stop offset="1" stop-color="#ff7bac" stop-opacity="0"/>
    </radialGradient>
  </defs>
  <g id="pâteAvant">
    <path class="cls-6" d="M10.15,255.65l11.48,23.44c1.2,2.45,4.28,3.43,6.96,2.22l2.06-.93c2.72-1.23,4.03-4.26,2.92-6.8l-10.43-23.97c-1.13-2.6-4.35-3.67-7.13-2.37l-3.11,1.46c-2.75,1.29-4,4.42-2.76,6.95Z"/>
    <path class="cls-13" d="M26.23,242.45c-4.28,2.01-6.06,7.26-3.97,11.72,.8,1.71,2.05,3.05,3.53,3.95-.83,2.19-.8,4.74,.3,7.09,.79,1.68,2.01,3.01,3.45,3.91,.15,.7,.38,1.39,.69,2.06,2.09,4.46,7.26,6.45,11.55,4.44,1.19-.56,2.19-1.37,2.96-2.35,.64-.81,1.49-1.42,2.41-1.89l39.62-21.36,6.92-26.37-61.4,17.89c-.54,.16-1.11,.23-1.68,.17-1.47-.16-2.98,.07-4.38,.73Z"/>
  </g>
  <g id="pâteAvant-2" data-name="pâteAvant">
    <path class="cls-6" d="M269.33,328.57l19.92-19.44c2.08-2.03,2.05-5.47-.07-7.79l-1.63-1.78c-2.15-2.35-5.66-2.66-7.86-.7l-20.8,18.55c-2.26,2.01-2.27,5.63-.03,8.01l2.52,2.67c2.22,2.36,5.81,2.57,7.96,.48Z"/>
    <path class="cls-13" d="M250.61,316.69c3.46,3.67,9.37,3.72,13.19,.12,1.46-1.38,2.41-3.1,2.83-4.89,2.49,.12,5.07-.77,7.08-2.66,1.44-1.35,2.38-3.03,2.81-4.8,.65-.38,1.28-.84,1.86-1.38,3.82-3.6,4.11-9.51,.65-13.18-.96-1.02-2.12-1.76-3.36-2.22-1.03-.38-1.94-1.03-2.71-1.81l-41.21-40.38-22.62,9.15,38.57,56.22c.34,.5,.6,1.05,.73,1.64,.33,1.54,1.06,2.99,2.2,4.2Z"/>
  </g>
  <g id="pâteAvant-3" data-name="pâteAvant">
    <path class="cls-6" d="M315.27,254.44l-11.48,23.44c-1.2,2.45-4.28,3.43-6.96,2.22l-2.06-.93c-2.72-1.23-4.03-4.26-2.92-6.8l10.43-23.97c1.13-2.6,4.35-3.67,7.13-2.37l3.11,1.46c2.75,1.29,4,4.42,2.76,6.95Z"/>
    <path class="cls-13" d="M299.19,241.25c4.28,2.01,6.06,7.26,3.97,11.72-.8,1.71-2.05,3.05-3.53,3.95,.83,2.19,.8,4.74-.3,7.09-.79,1.68-2.01,3.01-3.45,3.91-.15,.7-.38,1.39-.69,2.06-2.09,4.46-7.26,6.45-11.55,4.44-1.19-.56-2.19-1.37-2.96-2.35-.64-.81-1.49-1.42-2.41-1.89l-39.62-21.36-6.92-26.37,61.4,17.89c.54,.16,1.11,.23,1.68,.17,1.47-.16,2.98,.07,4.38,.73Z"/>
  </g>
  <path class="cls-11" d="M129.74,220.53l-5.16-37.82c23.47,1.52,46.19-2.65,68.61-8.33,6.68-1.69,13.53,2.19,15.25,8.7,.94,3.54,.87,7.31-.05,11.28-.75,3.24-2.88,6.03-5.8,7.74-14.51,8.52-41.54,13.99-72.86,18.42Z"/>
  <g id="queue">
    <path class="cls-13" d="M245.92,188.01c-14.06-.35-25.01,10.17-26.78,19.83-1.69,9.23,31.4,.91,26.78-19.83Z"/>
    <path class="cls-4" d="M242.91,192.43c-.87,1.39-1.56,2.46-2.23,3.65-.71,1.17-.93,2.54-1.53,3.76-.92,1.87-1.97,3.73-3.33,5.36-.46,.51-.94,1.07-1.59,1.36-.19,.05-.12,.33,.08,.3,3.18-.43,8.81-6.97,9.53-9.77,.36-1.53,.39-3.28-.59-4.68-.08-.11-.27-.1-.33,.02h0Z"/>
  </g>
  <path class="cls-13" d="M241.51,229.17c0,18.19-9.78,28.65-25.52,34.54h-.01c-15.07,5.64-35.6,7.08-58.23,7.08-36.76,0-68-5.7-79.28-24.41-2.91-4.83-4.49-10.52-4.49-17.21,0-33.16,37.51-39.48,83.77-39.48s83.76,13.9,83.76,39.48Z"/>
  <circle class="cls-4" cx="215.99" cy="208.57" r="4.74"/>
  <circle class="cls-4" cx="206.11" cy="203.83" r="4.04"/>
  <circle class="cls-4" cx="207.01" cy="212.47" r="2.86"/>
  <path class="cls-4" d="M215.98,263.71c-15.07,5.64-35.6,7.08-58.23,7.08-36.76,0-68-5.7-79.28-24.41-4.87-12.4-3.52-29.49,4.7-36.35,0,0,14.21,3.54,8.53,6.69-5.69,3.16-6.76,31.43-4.36,38.5,2.4,7.08,21.6,8.15,21.6,8.15,22.7,6.15,60.48,6.13,107.04,.34Z"/>
  <g id="pâteAvant-4" data-name="pâteAvant">
    <path class="cls-6" d="M58.97,329.68l-19.68-18.48c-2.05-1.93-2.11-5.25-.13-7.5l1.53-1.73c2.01-2.29,5.38-2.63,7.55-.76l20.51,17.62c2.23,1.91,2.33,5.4,.23,7.71l-2.36,2.6c-2.09,2.3-5.53,2.54-7.66,.55Z"/>
    <path class="cls-13" d="M76.71,318.03c-3.25,3.57-8.94,3.69-12.71,.27-1.44-1.31-2.4-2.95-2.84-4.68-2.4,.14-4.9-.68-6.89-2.48-1.42-1.29-2.37-2.89-2.83-4.59-.64-.36-1.26-.8-1.82-1.31-3.77-3.42-4.2-9.1-.96-12.68,.9-.99,2-1.72,3.19-2.18,.98-.38,1.84-1.02,2.57-1.78l37.43-39.77,23.32,8.97-35.78,54.57c-.32,.48-.56,1.02-.66,1.59-.28,1.48-.95,2.89-2.02,4.06Z"/>
  </g>
  <g id="_écharpe" data-name="écharpe">
    <path class="cls-11" d="M118.5,191.56l36.42-11.42c2.44,23.39,10.35,45.09,19.7,66.24,2.79,6.31,.11,13.7-6.02,16.49-3.33,1.52-7.06,2.08-11.13,1.84-3.32-.2-6.43-1.83-8.6-4.42-10.82-12.87-20.75-38.61-30.36-68.74Z"/>
    <path class="cls-8" d="M88.11,176.86h52.28c13.42,0,24.32,10.9,24.32,24.32v9.28c0,3.97-3.23,7.2-7.2,7.2H71c-3.97,0-7.2-3.23-7.2-7.2v-9.28c0-13.42,10.9-24.32,24.32-24.32Z" transform="translate(228.5 394.52) rotate(-180)"/>
  </g>
  <g id="têteFace">
    <path class="cls-13" d="M175.72,137.56c0,26.4-13.07,49.37-32.34,61.2-.01,.01-.02,.01-.03,.02-8.81,5.39-18.91,8.46-29.65,8.46-10.09,0-19.62-2.71-28.03-7.51-20.17-11.5-33.99-35.01-33.99-62.16,0-38.48,27.77-69.67,62.02-69.67s62.02,31.18,62.02,69.67Z"/>
    <g id="zeux">
      <g>
        <ellipse cx="86.86" cy="142.45" rx="4.99" ry="10.6"/>
        <ellipse class="cls-2" cx="88.21" cy="137.8" rx="1.64" ry="1.69"/>
      </g>
      <g>
        <ellipse cx="141.55" cy="142.45" rx="4.99" ry="10.6"/>
        <ellipse class="cls-2" cx="142.91" cy="137.8" rx="1.64" ry="1.69"/>
      </g>
    </g>
    <g id="bois">
      <path class="cls-7" d="M67.93,101.68c-1.05,2.19-3.18,3.46-5.39,3.46-.89,0-1.8-.21-2.65-.64l-26.7-13.52-2.52-17.59L8.59,55.41c-1.95-1.58-2.28-4.5-.73-6.5,1.54-2.01,4.37-2.35,6.32-.75l14.57,11.87-4.58-31.9c-.28-.12-.56-.28-.82-.47L6.68,15.36c-2.02-1.49-2.49-4.38-1.04-6.46,1.45-2.08,4.26-2.55,6.28-1.07l10.44,7.7-.24-1.67c-.48-3.37,1.78-6.5,5.06-7.01,3.27-.5,6.33,1.83,6.81,5.21l2.5,17.39,19.46-9.11c2.26-1.06,4.93-.03,5.96,2.3,1.03,2.33,.03,5.07-2.23,6.13l-21.82,10.22,4.45,31,18.37-8.6c2.26-1.06,4.93-.03,5.96,2.3,1.03,2.33,.03,5.07-2.23,6.13l-20.74,9.71,.47,3.24,21.05,10.65c2.97,1.51,4.2,5.21,2.74,8.26Z"/>
      <path class="cls-7" d="M159.77,101.68c1.05,2.19,3.18,3.46,5.39,3.46,.89,0,1.8-.21,2.65-.64l26.7-13.52,2.52-17.59,22.08-17.98c1.95-1.58,2.28-4.5,.73-6.5-1.54-2.01-4.37-2.35-6.32-.75l-14.57,11.87,4.58-31.9c.28-.12,.56-.28,.82-.47l16.67-12.29c2.02-1.49,2.49-4.38,1.04-6.46-1.45-2.08-4.26-2.55-6.28-1.07l-10.44,7.7,.24-1.67c.48-3.37-1.78-6.5-5.06-7.01-3.27-.5-6.33,1.83-6.81,5.21l-2.5,17.39-19.46-9.11c-2.26-1.06-4.93-.03-5.96,2.3-1.03,2.33-.03,5.07,2.23,6.13l21.82,10.22-4.45,31-18.37-8.6c-2.26-1.06-4.93-.03-5.96,2.3-1.03,2.33-.03,5.07,2.23,6.13l20.74,9.71-.47,3.24-21.05,10.65c-2.97,1.51-4.2,5.21-2.74,8.26Z"/>
    </g>
    <g id="bonnet">
      <path class="cls-9" d="M72.92,67.76c9.76-12,22.42-9.56,24.91-9.75s35.25,0,38.89,0,12.26,2.93,15.9,6.63,10.54,18.14,10.54,18.14l-21.65,8.97s-59.2,.39-60.73,0-14.37-4.88-14.37-4.88l-1.34-4.49s3.26-8.97,7.85-14.63Z"/>
      <path class="cls-3" d="M73.3,84.82c6.48-5.96,11.2-4.44,15.24,0,4.55-4.68,9.17-5.47,13.91-.72,4.03-4.18,8.47-4.35,13.38,0,4.74-6.22,10.02-6.19,15.77-.86,4.36-3.98,7.46-2.21,10.47,0,3.6-6.03,8.16-7.33,14.04-2.16,7.83-4.15,12.48-1.56,15.24,5.04,6.27,4.67,5.53,9.42-1.59,14.25-3.15,9.28-8.08,10.65-14.97,3.31-4.66,6.43-9.72,5.99-15.1,0-3.26,4.9-7.88,5.34-13.78,1.58-4.11,4.27-8.55,4.05-13.25,0-5.49,5.56-10.59,5.19-15.37,0-2.4,3.84-6.42,4.13-11.66,1.73-3.14,5.04-7.14,5.95-12.32,1.3-8.1,4.43-12.85,2.11-15.37-4.75-9.16-4.76-7.68-9.68-.66-14.68,2.6-8.77,7.81-10.48,16.03-4.03Z"/>
      <path class="cls-3" d="M113.57,36.54c-1.87-1.11-3.77-.66-5.71,1.25-2.91,.01-4.19,1.44-4.72,3.53-2.62,.78-3.48,2.58-2.92,5.2-1.83,1.55-2.04,3.54-.61,5.98-1.29,2.53-.85,4.49,1.8,5.72,0,2.68,1.2,4.27,3.91,4.47,1.42,2.62,3.24,3.25,5.33,2.44,2.29,1.4,4.25,1.46,5.84,0,2.76,1.1,4.72,.65,5.33-2.44,3.16-.05,4.41-1.58,3.91-4.47,2.09-1.31,3.1-3.05,1.8-5.72,1.58-2.28,1.57-4.3-.61-5.98,.1-3.14-.97-4.74-2.92-5.2,.38-2.06-.79-3.42-4.72-3.53-.46-2.16-2.49-2.43-5.71-1.25Z"/>
    </g>
    <path class="cls-4" d="M151.34,184.28c0,5.47-2.97,10.49-7.96,14.48-.01,.01-.02,.01-.03,.02-8.81,5.39-18.91,8.46-29.65,8.46-10.09,0-19.62-2.71-28.03-7.51-5.75-4.13-9.23-9.53-9.23-15.45,0-12.97,16.44-31.24,37.13-31.24s37.77,18.27,37.77,31.24Z"/>
    <ellipse class="cls-5" cx="114.01" cy="166.89" rx="16.99" ry="12.22"/>
    <path class="cls-10" d="M104.79,187.54c6.49,8.57,12.75,8.57,18.81,0"/>
    <g id="oreilleL">
      <path class="cls-13" d="M1.53,106.91c-1.29-7.86,8.34-15.99,19.58-15.34,11.24,.65,30.44,13.39,38.65,24.7,8.21,11.31,1.98,18.59-3.54,17.29-5.52-1.3-53.18-17.42-54.69-26.65Z"/>
      <path class="cls-12" d="M6.58,110.86c-3.17-3.09,5.31-12.42,13.14-10.92s29.68,16.12,32.91,21.39c3.22,5.27-3.35,4.16-5.87,3.71s-37.64-11.7-40.17-14.17Z"/>
    </g>
    <g id="oreilleR">
      <path class="cls-13" d="M227.57,106.91c1.29-7.86-8.34-15.99-19.58-15.34-11.24,.65-30.44,13.39-38.65,24.7-8.21,11.31-1.98,18.59,3.54,17.29s53.18-17.42,54.69-26.65Z"/>
      <path class="cls-12" d="M222.52,110.86c3.17-3.09-5.31-12.42-13.14-10.92-7.83,1.5-29.68,16.12-32.91,21.39-3.22,5.27,3.35,4.16,5.87,3.71s37.64-11.7,40.17-14.17Z"/>
    </g>
  </g>
  <ellipse class="cls-1" cx="114.25" cy="166.89" rx="47.3" ry="40.43"/>
</svg>