<?xml version="1.0" encoding="UTF-8"?>
<svg xmlns="http://www.w3.org/2000/svg" xmlns:xlink="http://www.w3.org/1999/xlink" viewBox="0 0 750 500">
  <defs>
    <style>
      .cls-1 {
        fill: #b0e4ea;
      }

      .cls-2 {
        clip-path: url(#clippath);
      }

      .cls-3 {
        fill: none;
      }

      .cls-4 {
        fill: #4c9bc6;
      }
    </style>
    <clipPath id="clippath">
      <rect class="cls-3" x="-600" width="500" height="500"/>
    </clipPath>
  </defs>
  <g id="BACKGROUND_2" data-name="BACKGROUND 2">
    <g id="landscape">
      <path class="cls-1" d="M625,317s-54.37-7.33-123.42-14.33c-68.13-6.91-157.28,22.34-191.07,25.41s-96.66-30.77-131.89-30.06c-22.29,.45-178.62,9.01-178.62,9.01v135.97H625v-126.01Z"/>
    </g>
  </g>
  <g id="BACKGROUND_1" data-name="BACKGROUND 1">
    <g class="cls-2">
      <path class="cls-4" d="M-206.87,355.66l217.44,11.65s-49.46-62.96-87.76-99.51c-.63-.6-1.25-1.19-1.87-1.77,0,0-.01-.01-.02-.02-.47-.45-.95-.89-1.42-1.33,0,0,0,0,0,0-.47-.44-.94-.87-1.41-1.3,0,0-.02-.02-.03-.02-.46-.42-.92-.84-1.37-1.25-.02-.02-.04-.03-.05-.05-.45-.41-.89-.81-1.34-1.2-.02-.02-.04-.04-.07-.06-.44-.39-.88-.78-1.31-1.16-.03-.02-.05-.04-.08-.07-.43-.38-.86-.75-1.29-1.12-.03-.02-.06-.05-.08-.07-.42-.36-.84-.72-1.26-1.08-.04-.03-.08-.07-.12-.1-.41-.35-.81-.69-1.21-1.02-.04-.04-.09-.07-.13-.11-.4-.33-.79-.66-1.18-.98-.05-.04-.1-.08-.16-.13-.38-.31-.76-.62-1.14-.92-.06-.05-.12-.09-.17-.14-.37-.29-.73-.59-1.1-.87-.07-.05-.14-.11-.21-.16-.35-.27-.7-.55-1.05-.81-.08-.06-.15-.12-.23-.17-.34-.26-.68-.51-1.01-.76-.08-.06-.16-.12-.23-.17-.33-.24-.65-.48-.98-.72-.09-.07-.18-.13-.27-.19-.31-.22-.62-.45-.93-.66-.09-.06-.18-.12-.27-.19-.3-.21-.6-.42-.9-.62-.1-.07-.2-.13-.3-.2-.28-.19-.57-.38-.85-.56-.1-.07-.21-.13-.31-.2-.27-.18-.55-.35-.81-.52-.11-.07-.21-.13-.32-.2-.26-.16-.52-.32-.78-.48-.11-.07-.23-.13-.34-.2-.25-.15-.49-.29-.73-.43-.12-.07-.24-.13-.36-.2-.23-.13-.46-.26-.69-.38-.13-.07-.25-.13-.38-.2-.22-.11-.43-.23-.64-.33-.13-.06-.25-.12-.38-.18-.2-.1-.41-.2-.61-.29-.13-.06-.26-.11-.39-.17-.19-.09-.39-.17-.58-.25-.14-.06-.27-.11-.41-.16-.18-.07-.35-.15-.53-.21-.14-.05-.28-.1-.42-.15-.16-.06-.33-.12-.49-.17-.14-.05-.28-.08-.42-.13-.15-.05-.31-.1-.46-.14s-.29-.07-.44-.11c-.13-.03-.27-.07-.4-.1-.16-.03-.31-.06-.47-.09-.11-.02-.23-.05-.34-.06-.17-.03-.33-.04-.49-.06-.09,0-.19-.03-.28-.03-.25-.02-.5-.03-.74-.03-.28,0-.56,.01-.86,.04-.1,0-.2,.02-.3,.03-.2,.02-.4,.04-.6,.07-.12,.02-.25,.05-.37,.07-.19,.03-.37,.07-.56,.11-.14,.03-.28,.07-.41,.1-.19,.05-.37,.09-.56,.14-.15,.04-.3,.09-.44,.13-.19,.06-.38,.12-.57,.18-.15,.05-.31,.11-.47,.16-.19,.07-.38,.14-.58,.21-.16,.06-.33,.13-.49,.19-.2,.08-.4,.16-.6,.25-.17,.07-.34,.15-.51,.22-.2,.09-.41,.18-.61,.28-.17,.08-.35,.16-.53,.25-.21,.1-.42,.21-.63,.31-.18,.09-.36,.18-.54,.28-.09,.04-.17,.09-.26,.13-.03,.02-.07,.04-.1,.06-.1,.05-.19,.11-.29,.16-.18,.1-.37,.2-.55,.3-.22,.12-.45,.25-.67,.38-.19,.11-.37,.21-.56,.32-.23,.14-.47,.28-.7,.42-.19,.11-.37,.22-.56,.34-.24,.15-.49,.31-.74,.47-.18,.12-.37,.23-.55,.35-.27,.17-.54,.36-.82,.54-.17,.11-.33,.22-.5,.33-.43,.29-.87,.59-1.32,.9-.18,.13-.36,.26-.55,.39-.27,.19-.54,.38-.82,.58-.18,.13-.37,.27-.56,.4-.1,.07-.2,.15-.3,.22-.18,.13-.36,.26-.53,.39-.2,.14-.39,.29-.59,.44-.05,.04-.11,.08-.16,.12-.22,.16-.44,.33-.66,.5-.24,.18-.47,.36-.71,.54-.24,.19-.48,.37-.73,.56-.24,.19-.49,.38-.73,.57-.24,.19-.48,.38-.72,.57-.25,.2-.5,.4-.75,.6-.24,.19-.48,.39-.73,.59-.25,.21-.51,.41-.76,.62-.24,.2-.49,.4-.73,.61-.26,.21-.52,.43-.78,.65-.24,.2-.49,.41-.73,.61-.27,.22-.53,.45-.8,.68-.24,.2-.48,.41-.72,.62-.27,.24-.55,.47-.83,.71-.24,.2-.47,.41-.71,.62-.28,.25-.56,.49-.85,.74-.23,.21-.47,.41-.7,.62-.29,.25-.57,.51-.86,.77-.23,.2-.46,.41-.69,.62-.3,.27-.59,.53-.89,.8-.21,.19-.42,.38-.63,.57-.32,.29-.64,.58-.97,.88-.11,.1-.23,.21-.34,.31-.88,.81-1.77,1.63-2.66,2.47-.04,.04-.09,.08-.13,.12h0c-1.15,1.08-2.31,2.18-3.47,3.29-34.54,33.16-73.8,81.45-73.8,81.45l2.26,.12,23.11,1.24h0Z"/>
    </g>
  </g>
</svg>