<?xml version="1.0" encoding="UTF-8"?>
<svg xmlns="http://www.w3.org/2000/svg" xmlns:xlink="http://www.w3.org/1999/xlink" viewBox="0 0 750 500">
  <defs>
    <style>
      .cls-1 {
        fill: #fff;
      }

      .cls-2 {
        clip-path: url(#clippath);
      }

      .cls-3 {
        fill: #e9f3ff;
      }

      .cls-4 {
        fill: none;
      }

      .cls-5 {
        fill: #4c9bc6;
      }
    </style>
    <clipPath id="clippath">
      <rect class="cls-4" x="-600" width="500" height="500"/>
    </clipPath>
  </defs>
  <g id="BACKGROUND_2" data-name="BACKGROUND 2">
    <g id="landscape">
      <g id="floor">
        <path class="cls-1" d="M0,297.34s185.18,33.95,322.43,40.83,169.57-9.17,225.57-21.17,202-14.59,202-14.59v140.59H0v-145.66Z"/>
        <path class="cls-3" d="M593,335c-44.91,13.11-93.05,13.58-139.28,1.22-30.73,3.56-70.83,4.98-131.3,1.95-61.84-3.1-108.03-11.7-140.12-20.21-19.15,1.33-163.23,2.48-182.3,4.66v120.37H750v-120.1c-10.66,4.01-83.67-9.3-157,12.1Z"/>
        <path class="cls-1" d="M750,334.5v165.5H0v-165.5s223.97-50,317.97-34,130,54,202,54,230.03-20,230.03-20Z"/>
        <path class="cls-3" d="M522,448.04c-117,2-232,6-350-7-16.1-1.53-156.62-7.77-172-13.3v90.3H750v-87.39c-34.09,6.42-192.88,16.57-228,17.39Z"/>
        <path class="cls-3" d="M559,455h-82c-19.2-12.63-71.58-43.5-101.76-52.14-108.86-31.15-158.24-32.69-158.24-32.69,0,0,157.66,1.07,229.12,27.83,50.88,19.05,95.93,53.04,112.87,57Z"/>
        <path class="cls-3" d="M430.96,455h-26.55c-54.74-34.95-145.08-66-145.08-66,56.08-4,171.63,66,171.63,66Z"/>
      </g>
    </g>
  </g>
</svg>