<?xml version="1.0" encoding="UTF-8"?>
<svg xmlns="http://www.w3.org/2000/svg" xmlns:xlink="http://www.w3.org/1999/xlink" viewBox="0 0 750 500">
  <defs>
    <style>
      .cls-1 {
        fill: #fff;
      }

      .cls-2 {
        fill: #5cb5ef;
      }

      .cls-3 {
        fill: #51a0d8;
      }

      .cls-4 {
        clip-path: url(#clippath);
      }

      .cls-5 {
        fill: none;
      }

      .cls-6 {
        fill: #4c9bc6;
      }

      .cls-7 {
        fill: #74b0e6;
      }

      .cls-8 {
        fill: #689dcf;
      }

      .cls-9 {
        fill: #e8e2e2;
      }
    </style>
    <clipPath id="clippath">
      <rect class="cls-5" x="-600" width="500" height="500"/>
    </clipPath>
  </defs>
  <g id="BACKGROUND_2" data-name="BACKGROUND 2">
    <g id="landscape">
      <g id="Mountains">
        <path class="cls-6" d="M41.49,358.69l217.44,11.65s-49.46-62.96-87.76-99.51c-.63-.6-1.25-1.19-1.87-1.77,0,0-.01-.01-.02-.02-.47-.45-.95-.89-1.42-1.33h0c-.47-.44-.94-.88-1.41-1.31,0,0-.02-.02-.03-.02-.46-.42-.92-.84-1.37-1.25-.02-.02-.04-.03-.05-.05-.45-.41-.89-.81-1.34-1.2-.02-.02-.04-.04-.07-.06-.44-.39-.88-.78-1.31-1.16-.03-.02-.05-.04-.08-.07-.43-.38-.86-.75-1.29-1.12-.03-.02-.06-.05-.08-.07-.42-.36-.84-.72-1.26-1.08-.04-.03-.08-.07-.12-.1-.41-.35-.81-.69-1.21-1.02-.04-.04-.09-.07-.13-.11-.4-.33-.79-.66-1.18-.98-.05-.04-.1-.08-.16-.13-.38-.31-.76-.62-1.14-.92-.06-.05-.12-.09-.17-.14-.37-.29-.73-.59-1.1-.87-.07-.05-.14-.11-.21-.16-.35-.27-.7-.55-1.05-.81-.08-.06-.15-.12-.23-.17-.34-.26-.68-.51-1.01-.76-.08-.06-.16-.12-.23-.17-.33-.24-.65-.48-.98-.72-.09-.07-.18-.13-.27-.19-.31-.22-.62-.45-.93-.66-.09-.06-.18-.12-.27-.19-.3-.21-.6-.42-.9-.62-.1-.07-.2-.13-.3-.2-.28-.19-.57-.38-.85-.56-.1-.07-.21-.13-.31-.2-.27-.18-.55-.35-.81-.52-.11-.07-.21-.13-.32-.2-.26-.16-.52-.32-.78-.48-.11-.07-.23-.13-.34-.2-.25-.15-.49-.29-.73-.43-.12-.07-.24-.13-.36-.2-.23-.13-.46-.26-.69-.38-.13-.07-.25-.13-.38-.2-.22-.11-.43-.23-.64-.33-.13-.06-.25-.12-.38-.18-.2-.1-.41-.2-.61-.29-.13-.06-.26-.11-.39-.17-.19-.09-.39-.17-.58-.25-.14-.06-.27-.11-.41-.16-.18-.07-.36-.15-.53-.21-.14-.05-.28-.1-.42-.15-.16-.06-.33-.12-.49-.17-.14-.05-.28-.08-.42-.13-.15-.05-.31-.1-.46-.14-.15-.04-.29-.07-.44-.11-.13-.03-.27-.07-.4-.1-.16-.03-.31-.06-.47-.09-.11-.02-.23-.05-.34-.06-.17-.03-.33-.04-.49-.06-.09,0-.19-.03-.28-.03-.25-.02-.5-.03-.74-.03-.28,0-.56,.01-.86,.04-.1,0-.2,.02-.3,.03-.2,.02-.4,.04-.6,.07-.12,.02-.25,.05-.37,.07-.19,.03-.37,.07-.56,.11-.14,.03-.28,.07-.41,.1-.19,.05-.37,.09-.56,.14-.15,.04-.3,.09-.44,.13-.19,.06-.38,.12-.57,.18-.15,.05-.31,.11-.47,.16-.19,.07-.38,.14-.58,.21-.16,.06-.33,.13-.49,.19-.2,.08-.39,.16-.6,.25-.17,.07-.34,.15-.51,.22-.2,.09-.41,.18-.61,.28-.17,.08-.35,.16-.53,.25-.21,.1-.42,.21-.63,.31-.18,.09-.36,.18-.54,.28-.09,.04-.17,.09-.26,.13-.03,.02-.07,.04-.1,.06-.1,.05-.19,.11-.29,.16-.18,.1-.37,.2-.55,.3-.22,.12-.45,.25-.67,.38-.19,.11-.37,.21-.56,.32-.23,.14-.47,.28-.7,.42-.19,.11-.37,.22-.56,.34-.24,.15-.49,.31-.74,.47-.18,.12-.37,.23-.55,.35-.27,.17-.54,.36-.82,.54-.17,.11-.33,.22-.5,.33-.43,.29-.87,.59-1.32,.9-.18,.13-.36,.26-.55,.39-.27,.19-.54,.38-.82,.58-.18,.13-.37,.27-.56,.4-.1,.07-.2,.15-.3,.22-.18,.13-.36,.26-.53,.39-.2,.14-.39,.29-.59,.44-.05,.04-.11,.08-.16,.12-.22,.16-.44,.33-.66,.5-.23,.18-.47,.36-.71,.54-.24,.19-.48,.37-.73,.56-.24,.19-.49,.38-.73,.57-.24,.19-.48,.38-.72,.57-.25,.2-.5,.4-.75,.6-.24,.19-.48,.39-.73,.59-.25,.21-.51,.41-.76,.62-.24,.2-.49,.4-.73,.61-.26,.21-.52,.43-.78,.65-.24,.2-.49,.41-.73,.61-.27,.22-.53,.45-.8,.68-.24,.2-.48,.41-.72,.62-.27,.24-.55,.47-.83,.71-.24,.2-.47,.41-.71,.62-.28,.25-.56,.49-.85,.74-.23,.21-.47,.41-.7,.62-.29,.25-.57,.51-.86,.77-.23,.2-.46,.41-.69,.62-.3,.27-.59,.53-.89,.8-.21,.19-.42,.38-.63,.57-.32,.29-.64,.58-.97,.88-.11,.1-.23,.21-.34,.31-.88,.81-1.77,1.63-2.66,2.47-.04,.04-.09,.08-.13,.12h0c-1.15,1.08-2.31,2.18-3.47,3.29-34.54,33.16-73.8,81.45-73.8,81.45l2.26,.12,23.11,1.24h0Z"/>
        <path class="cls-6" d="M209,339.19l217.44,11.65s-49.46-62.96-87.76-99.51c-.63-.6-1.25-1.19-1.87-1.77l-.02-.02c-.47-.45-.95-.89-1.42-1.33,0,0,0,0,0,0-.47-.44-.94-.87-1.41-1.3,0,0-.02-.02-.03-.02-.46-.42-.92-.84-1.37-1.25-.02-.02-.04-.03-.05-.05-.45-.41-.89-.81-1.34-1.2-.02-.02-.04-.04-.07-.06-.44-.39-.88-.78-1.31-1.16-.03-.02-.05-.04-.08-.07-.43-.38-.86-.75-1.29-1.12-.03-.02-.06-.05-.09-.07-.42-.36-.84-.72-1.26-1.08-.04-.03-.08-.07-.12-.1-.41-.35-.81-.69-1.21-1.02-.04-.04-.09-.07-.13-.11-.4-.33-.79-.66-1.18-.98-.05-.04-.1-.08-.15-.13-.38-.31-.76-.62-1.14-.92-.06-.05-.12-.09-.17-.14-.37-.29-.73-.59-1.1-.87-.07-.05-.14-.11-.21-.16-.35-.27-.7-.55-1.05-.81-.08-.06-.15-.12-.23-.17-.34-.26-.68-.51-1.01-.76-.08-.06-.16-.12-.23-.17-.33-.24-.65-.48-.97-.72-.09-.07-.18-.13-.27-.19-.31-.22-.62-.45-.93-.66-.09-.06-.18-.12-.27-.19-.3-.21-.6-.42-.9-.62-.1-.07-.2-.13-.3-.2-.28-.19-.57-.38-.85-.56-.1-.07-.21-.13-.31-.2-.27-.18-.55-.35-.81-.52-.11-.07-.21-.13-.32-.2-.26-.16-.52-.32-.78-.48-.11-.07-.23-.13-.34-.2-.25-.15-.49-.29-.73-.43-.12-.07-.24-.13-.36-.2-.23-.13-.46-.26-.69-.38-.13-.07-.25-.13-.38-.2-.22-.11-.43-.23-.64-.33-.13-.06-.25-.12-.38-.18-.2-.1-.41-.2-.61-.29-.13-.06-.26-.11-.39-.17-.19-.09-.39-.17-.58-.25-.14-.06-.27-.11-.41-.16-.18-.07-.36-.15-.53-.21-.14-.05-.28-.1-.42-.15-.16-.06-.33-.12-.49-.17-.14-.05-.28-.08-.42-.13-.15-.05-.31-.1-.45-.14-.15-.04-.29-.07-.44-.11-.13-.03-.27-.07-.4-.1-.16-.03-.31-.06-.47-.09-.11-.02-.23-.05-.34-.06-.17-.03-.33-.04-.49-.06-.09,0-.19-.03-.28-.03-.25-.02-.5-.03-.74-.03-.28,0-.56,.01-.86,.04-.1,0-.2,.02-.3,.03-.2,.02-.4,.04-.6,.07-.12,.02-.25,.05-.37,.07-.19,.03-.37,.07-.56,.11-.14,.03-.28,.07-.41,.1-.19,.05-.37,.09-.56,.15-.15,.04-.3,.09-.44,.13-.19,.06-.38,.12-.57,.18-.15,.05-.31,.11-.47,.16-.19,.07-.38,.14-.58,.21-.16,.06-.33,.13-.49,.19-.2,.08-.39,.16-.6,.25-.17,.07-.34,.15-.51,.22-.2,.09-.41,.18-.61,.28-.17,.08-.35,.16-.53,.25-.21,.1-.42,.21-.63,.31-.18,.09-.36,.18-.54,.28-.09,.04-.17,.09-.26,.13-.03,.02-.07,.04-.1,.06-.1,.05-.19,.11-.29,.16-.18,.1-.37,.2-.55,.3-.22,.12-.45,.25-.67,.38-.19,.11-.37,.21-.56,.32-.23,.14-.47,.28-.7,.42-.19,.11-.37,.22-.56,.34-.24,.15-.49,.31-.74,.47-.18,.12-.37,.23-.55,.35-.27,.17-.54,.36-.82,.54-.17,.11-.33,.22-.5,.33-.43,.29-.87,.59-1.32,.9-.18,.13-.36,.26-.55,.39-.27,.19-.54,.38-.82,.58-.18,.13-.37,.27-.56,.4-.1,.07-.2,.15-.3,.22-.18,.13-.36,.26-.53,.39-.2,.14-.39,.29-.59,.44-.05,.04-.11,.08-.16,.12-.22,.16-.44,.33-.66,.5-.23,.18-.47,.36-.71,.54-.24,.19-.48,.37-.73,.56-.24,.19-.49,.38-.73,.57-.24,.19-.48,.38-.72,.57-.25,.2-.5,.4-.75,.6-.24,.19-.48,.39-.73,.59-.25,.21-.51,.41-.76,.62-.24,.2-.49,.4-.73,.61-.26,.21-.52,.43-.78,.65-.24,.2-.49,.41-.73,.61-.27,.22-.53,.45-.8,.68-.24,.2-.48,.41-.72,.62-.27,.24-.55,.47-.83,.71-.24,.2-.47,.41-.71,.62-.28,.25-.56,.49-.85,.74-.23,.21-.47,.41-.7,.62-.29,.25-.57,.51-.86,.77-.23,.2-.46,.41-.69,.62-.3,.27-.59,.53-.89,.8-.21,.19-.42,.38-.63,.57-.32,.29-.64,.58-.97,.88-.11,.1-.23,.21-.34,.31-.88,.81-1.77,1.63-2.66,2.47-.04,.04-.09,.08-.13,.12h0c-1.15,1.08-2.31,2.18-3.47,3.29-34.54,33.16-73.8,81.45-73.8,81.45l2.26,.12,23.11,1.24h0Z"/>
        <path class="cls-6" d="M-92.44,350.19l217.44,11.65s-49.46-62.96-87.76-99.51c-.63-.6-1.25-1.19-1.87-1.77,0,0-.01-.01-.02-.02-.47-.45-.95-.89-1.42-1.33,0,0,0,0,0,0-.47-.44-.94-.87-1.41-1.3,0,0-.02-.02-.03-.02-.46-.42-.92-.84-1.37-1.25-.02-.02-.04-.03-.05-.05-.45-.41-.89-.81-1.34-1.2-.02-.02-.04-.04-.07-.06-.44-.39-.88-.78-1.31-1.16-.03-.02-.05-.04-.08-.07-.43-.38-.86-.75-1.29-1.12-.03-.02-.06-.05-.08-.07-.42-.36-.84-.72-1.26-1.08-.04-.03-.08-.07-.12-.1-.41-.35-.81-.69-1.21-1.02-.04-.04-.09-.07-.13-.11-.4-.33-.79-.66-1.18-.98-.05-.04-.1-.08-.15-.13-.38-.31-.76-.62-1.14-.92-.06-.05-.12-.09-.17-.14-.37-.29-.73-.59-1.1-.87-.07-.05-.14-.11-.21-.16-.35-.27-.7-.55-1.05-.81-.08-.06-.15-.12-.23-.17-.34-.26-.68-.51-1.01-.76-.08-.06-.16-.12-.23-.17-.33-.24-.65-.48-.98-.72-.09-.07-.18-.13-.27-.19-.31-.22-.62-.45-.93-.66-.09-.06-.18-.12-.27-.19-.3-.21-.6-.42-.9-.62-.1-.07-.2-.13-.3-.2-.28-.19-.57-.38-.85-.56-.1-.07-.21-.13-.31-.2-.27-.18-.55-.35-.81-.52-.11-.07-.21-.13-.32-.2-.26-.16-.52-.32-.78-.48-.11-.07-.23-.13-.34-.2-.25-.15-.49-.29-.73-.43-.12-.07-.24-.13-.36-.2-.23-.13-.46-.26-.69-.38-.13-.07-.25-.13-.38-.2-.22-.11-.43-.23-.64-.33-.13-.06-.25-.12-.38-.18-.2-.1-.41-.2-.61-.29-.13-.06-.26-.11-.39-.17-.19-.09-.39-.17-.58-.25-.14-.06-.27-.11-.41-.16-.18-.07-.36-.15-.53-.21-.14-.05-.28-.1-.42-.15-.16-.06-.33-.12-.49-.17-.14-.05-.28-.08-.42-.13-.15-.05-.31-.1-.45-.14-.15-.04-.29-.07-.44-.11-.13-.03-.27-.07-.4-.1-.16-.03-.31-.06-.47-.09-.11-.02-.23-.05-.34-.06-.17-.03-.33-.04-.49-.06-.09,0-.19-.03-.28-.03-.25-.02-.5-.03-.74-.03-.28,0-.56,.01-.86,.04-.1,0-.2,.02-.3,.03-.2,.02-.4,.04-.6,.07-.12,.02-.25,.05-.37,.07-.19,.03-.37,.07-.56,.11-.14,.03-.28,.07-.41,.1-.19,.05-.37,.09-.56,.15-.15,.04-.3,.09-.44,.13-.19,.06-.38,.12-.57,.18-.15,.05-.31,.11-.47,.16-.19,.07-.38,.14-.58,.21-.16,.06-.33,.13-.49,.19-.2,.08-.39,.16-.6,.25-.17,.07-.34,.15-.51,.22-.2,.09-.41,.18-.61,.28-.17,.08-.35,.16-.53,.25-.21,.1-.42,.21-.63,.31-.18,.09-.36,.18-.54,.28-.09,.04-.17,.09-.26,.13-.03,.02-.07,.04-.1,.06-.1,.05-.19,.11-.29,.16-.18,.1-.37,.2-.55,.3-.22,.12-.45,.25-.67,.38-.19,.11-.37,.21-.56,.32-.23,.14-.47,.28-.7,.42-.19,.11-.37,.22-.56,.34-.24,.15-.49,.31-.74,.47-.18,.12-.37,.23-.55,.35-.27,.17-.54,.36-.82,.54-.17,.11-.33,.22-.5,.33-.43,.29-.87,.59-1.32,.9-.18,.13-.36,.26-.55,.39-.27,.19-.54,.38-.82,.58-.18,.13-.37,.27-.56,.4-.1,.07-.2,.15-.3,.22-.18,.13-.36,.26-.53,.39-.2,.14-.39,.29-.59,.44-.05,.04-.11,.08-.16,.12-.22,.16-.44,.33-.66,.5-.23,.18-.47,.36-.71,.54-.24,.19-.48,.37-.73,.56-.24,.19-.49,.38-.73,.57-.24,.19-.48,.38-.72,.57-.25,.2-.5,.4-.75,.6-.24,.19-.48,.39-.73,.59-.25,.21-.51,.41-.76,.62-.24,.2-.49,.4-.73,.61-.26,.21-.52,.43-.78,.65-.24,.2-.49,.41-.73,.61-.27,.22-.53,.45-.8,.68-.24,.2-.48,.41-.72,.62-.27,.24-.55,.47-.83,.71-.24,.2-.47,.41-.71,.62-.28,.25-.56,.49-.85,.74-.23,.21-.47,.41-.7,.62-.29,.25-.57,.51-.86,.77-.23,.2-.46,.41-.69,.62-.3,.27-.59,.53-.89,.8-.21,.19-.42,.38-.63,.57-.32,.29-.64,.58-.97,.88-.11,.1-.23,.21-.34,.31-.88,.81-1.77,1.63-2.66,2.47-.04,.04-.09,.08-.13,.12h0c-1.15,1.08-2.31,2.18-3.47,3.29-34.54,33.16-73.8,81.45-73.8,81.45l2.26,.12,23.11,1.24s0,0,0,0Z"/>
        <path class="cls-6" d="M358.14,358.11l217.44,11.65s-49.46-62.96-87.76-99.51c-.63-.6-1.25-1.19-1.87-1.77,0,0-.01-.01-.02-.02-.47-.45-.95-.89-1.42-1.33,0,0,0,0,0,0-.47-.44-.94-.87-1.41-1.3,0,0-.02-.02-.03-.02-.46-.42-.92-.84-1.37-1.25-.02-.02-.04-.03-.05-.05-.45-.41-.89-.81-1.34-1.2-.02-.02-.04-.04-.07-.06-.44-.39-.88-.78-1.31-1.16-.03-.02-.05-.04-.08-.07-.43-.38-.86-.75-1.29-1.12-.03-.02-.06-.05-.08-.07-.42-.36-.84-.72-1.26-1.08-.04-.03-.08-.07-.12-.1-.41-.35-.81-.69-1.21-1.02-.04-.04-.09-.07-.13-.11-.4-.33-.79-.66-1.18-.98-.05-.04-.1-.08-.16-.13-.38-.31-.76-.62-1.14-.92-.06-.05-.12-.09-.17-.14-.37-.29-.73-.59-1.1-.87-.07-.05-.14-.11-.21-.16-.35-.27-.7-.55-1.05-.81-.08-.06-.15-.12-.23-.17-.34-.26-.68-.51-1.01-.76-.08-.06-.16-.12-.23-.17-.33-.24-.65-.48-.97-.72-.09-.07-.18-.13-.27-.19-.31-.22-.62-.45-.93-.66-.09-.06-.18-.12-.27-.19-.3-.21-.6-.42-.9-.62-.1-.07-.2-.13-.3-.2-.28-.19-.57-.38-.85-.56-.1-.07-.21-.13-.31-.2-.27-.18-.55-.35-.81-.52-.11-.07-.21-.13-.32-.2-.26-.16-.52-.32-.78-.48-.11-.07-.23-.13-.34-.2-.25-.15-.49-.29-.73-.43-.12-.07-.24-.13-.36-.2-.23-.13-.46-.26-.69-.38-.13-.07-.25-.13-.38-.2-.22-.11-.43-.23-.64-.33-.13-.06-.25-.12-.38-.18-.2-.1-.41-.2-.61-.29-.13-.06-.26-.11-.39-.17-.19-.09-.39-.17-.58-.25-.14-.06-.27-.11-.41-.16-.18-.07-.35-.15-.53-.21-.14-.05-.28-.1-.42-.15-.16-.06-.33-.12-.49-.17-.14-.05-.28-.08-.42-.13-.15-.05-.31-.1-.46-.14-.15-.04-.29-.07-.44-.11-.13-.03-.27-.07-.4-.1-.16-.03-.31-.06-.47-.09-.11-.02-.23-.05-.34-.06-.17-.03-.33-.04-.49-.06-.09-.01-.19-.03-.28-.03-.25-.02-.5-.03-.74-.03-.28,0-.56,.01-.86,.04-.1,0-.2,.02-.3,.03-.2,.02-.4,.04-.6,.07-.12,.02-.25,.05-.37,.07-.19,.03-.37,.07-.56,.11-.14,.03-.28,.07-.41,.1-.19,.05-.37,.09-.56,.15-.15,.04-.3,.09-.44,.13-.19,.06-.38,.12-.57,.18-.15,.05-.31,.11-.47,.16-.19,.07-.38,.14-.58,.21-.16,.06-.33,.13-.49,.19-.2,.08-.39,.16-.6,.25-.17,.07-.34,.15-.51,.22-.2,.09-.41,.18-.61,.28-.17,.08-.35,.17-.53,.25-.21,.1-.42,.21-.63,.31-.18,.09-.36,.18-.54,.28-.09,.04-.17,.09-.26,.13-.03,.02-.07,.04-.1,.06-.1,.05-.19,.11-.29,.16-.18,.1-.37,.2-.55,.3-.22,.12-.45,.25-.67,.38-.19,.11-.37,.21-.56,.32-.23,.14-.47,.28-.7,.42-.19,.11-.37,.22-.56,.34-.24,.15-.49,.31-.74,.47-.18,.12-.37,.23-.55,.35-.27,.17-.54,.36-.82,.54-.17,.11-.33,.22-.5,.33-.43,.29-.87,.59-1.32,.9-.18,.13-.36,.26-.55,.39-.27,.19-.54,.38-.82,.58-.18,.13-.37,.27-.56,.4-.1,.07-.2,.15-.3,.22-.18,.13-.36,.26-.53,.39-.2,.14-.39,.29-.59,.44-.05,.04-.11,.08-.16,.12-.22,.16-.44,.33-.66,.5-.23,.18-.47,.36-.71,.54-.24,.19-.48,.37-.73,.56-.24,.19-.49,.38-.73,.57-.24,.19-.48,.38-.72,.57-.25,.2-.5,.4-.75,.6-.24,.19-.48,.39-.73,.59-.25,.21-.51,.41-.76,.62-.24,.2-.49,.4-.73,.61-.26,.21-.52,.43-.78,.65-.24,.2-.49,.41-.73,.61-.27,.22-.53,.45-.8,.68-.24,.2-.48,.41-.72,.62-.27,.24-.55,.47-.83,.71-.24,.2-.47,.41-.71,.62-.28,.25-.56,.49-.85,.74-.23,.21-.47,.41-.7,.62-.29,.25-.57,.51-.86,.77-.23,.2-.46,.41-.69,.62-.3,.27-.59,.53-.89,.8-.21,.19-.42,.38-.63,.57-.32,.29-.64,.58-.97,.88-.11,.1-.23,.21-.34,.31-.88,.81-1.77,1.63-2.66,2.47-.04,.04-.09,.08-.13,.12h0c-1.15,1.08-2.31,2.18-3.47,3.29-34.54,33.16-73.8,81.45-73.8,81.45l2.26,.12,23.11,1.24s0,0,0,0Z"/>
        <path class="cls-6" d="M518.13,355.66l217.44,11.65s-49.46-62.96-87.76-99.51c-.63-.6-1.25-1.19-1.87-1.77,0,0-.01-.01-.02-.02-.47-.45-.95-.89-1.42-1.33,0,0,0,0,0,0-.47-.44-.94-.87-1.41-1.3,0,0-.02-.02-.03-.02-.46-.42-.92-.84-1.37-1.25-.02-.02-.04-.03-.05-.05-.45-.41-.89-.81-1.34-1.2-.02-.02-.04-.04-.07-.06-.44-.39-.88-.78-1.31-1.16-.03-.02-.05-.04-.08-.07-.43-.38-.86-.75-1.29-1.12-.03-.02-.06-.05-.08-.07-.42-.36-.84-.72-1.26-1.08-.04-.03-.08-.07-.12-.1-.41-.35-.81-.69-1.21-1.02-.04-.04-.09-.07-.13-.11-.4-.33-.79-.66-1.18-.98-.05-.04-.1-.08-.16-.13-.38-.31-.76-.62-1.14-.92-.06-.05-.12-.09-.17-.14-.37-.29-.73-.59-1.1-.87-.07-.05-.14-.11-.21-.16-.35-.27-.7-.55-1.05-.81-.08-.06-.15-.12-.23-.17-.34-.26-.68-.51-1.01-.76-.08-.06-.16-.12-.23-.17-.33-.24-.65-.48-.97-.72-.09-.07-.18-.13-.27-.19-.31-.22-.62-.45-.93-.66-.09-.06-.18-.12-.27-.19-.3-.21-.6-.42-.9-.62-.1-.07-.2-.13-.3-.2-.28-.19-.57-.38-.85-.56-.1-.07-.21-.13-.31-.2-.27-.18-.55-.35-.81-.52-.11-.07-.21-.13-.32-.2-.26-.16-.52-.32-.78-.48-.11-.07-.23-.13-.34-.2-.25-.15-.49-.29-.73-.43-.12-.07-.24-.13-.36-.2-.23-.13-.46-.26-.69-.38-.13-.07-.25-.13-.38-.2-.22-.11-.43-.23-.64-.33-.13-.06-.25-.12-.38-.18-.2-.1-.41-.2-.61-.29-.13-.06-.26-.11-.39-.17-.19-.09-.39-.17-.58-.25-.14-.06-.27-.11-.41-.16-.18-.07-.35-.15-.53-.21-.14-.05-.28-.1-.42-.15-.16-.06-.33-.12-.49-.17-.14-.05-.28-.08-.42-.13-.15-.05-.31-.1-.46-.14s-.29-.07-.44-.11c-.13-.03-.27-.07-.4-.1-.16-.03-.31-.06-.47-.09-.11-.02-.23-.05-.34-.06-.17-.03-.33-.04-.49-.06-.09,0-.19-.03-.28-.03-.25-.02-.5-.03-.74-.03-.28,0-.56,.01-.86,.04-.1,0-.2,.02-.3,.03-.2,.02-.4,.04-.6,.07-.12,.02-.25,.05-.37,.07-.19,.03-.37,.07-.56,.11-.14,.03-.28,.07-.41,.1-.19,.05-.37,.09-.56,.14-.15,.04-.3,.09-.44,.13-.19,.06-.38,.12-.57,.18-.15,.05-.31,.11-.47,.16-.19,.07-.38,.14-.58,.21-.16,.06-.33,.13-.49,.19-.2,.08-.39,.16-.6,.25-.17,.07-.34,.15-.51,.22-.2,.09-.41,.18-.61,.28-.17,.08-.35,.16-.53,.25-.21,.1-.42,.21-.63,.31-.18,.09-.36,.18-.54,.28-.09,.04-.17,.09-.26,.13-.03,.02-.07,.04-.1,.06-.1,.05-.19,.11-.29,.16-.18,.1-.37,.2-.55,.3-.22,.12-.45,.25-.67,.38-.19,.11-.37,.21-.56,.32-.23,.14-.47,.28-.7,.42-.19,.11-.37,.22-.56,.34-.24,.15-.49,.31-.74,.47-.18,.12-.37,.23-.55,.35-.27,.17-.54,.36-.82,.54-.17,.11-.33,.22-.5,.33-.43,.29-.87,.59-1.32,.9-.18,.13-.36,.26-.55,.39-.27,.19-.54,.38-.82,.58-.18,.13-.37,.27-.56,.4-.1,.07-.2,.15-.3,.22-.18,.13-.36,.26-.53,.39-.2,.14-.39,.29-.59,.44-.05,.04-.11,.08-.16,.12-.22,.16-.44,.33-.66,.5-.23,.18-.47,.36-.71,.54-.24,.19-.48,.37-.73,.56-.24,.19-.49,.38-.73,.57-.24,.19-.48,.38-.72,.57-.25,.2-.5,.4-.75,.6-.24,.19-.48,.39-.73,.59-.25,.21-.51,.41-.76,.62-.24,.2-.49,.4-.73,.61-.26,.21-.52,.43-.78,.65-.24,.2-.49,.41-.73,.61-.27,.22-.53,.45-.8,.68-.24,.2-.48,.41-.72,.62-.27,.24-.55,.47-.83,.71-.24,.2-.47,.41-.71,.62-.28,.25-.56,.49-.85,.74-.23,.21-.47,.41-.7,.62-.29,.25-.57,.51-.86,.77-.23,.2-.46,.41-.69,.62-.3,.27-.59,.53-.89,.8-.21,.19-.42,.38-.63,.57-.32,.29-.64,.58-.97,.88-.11,.1-.23,.21-.34,.31-.88,.81-1.77,1.63-2.66,2.47-.04,.04-.09,.08-.13,.12h0c-1.15,1.08-2.31,2.18-3.47,3.29-34.54,33.16-73.8,81.45-73.8,81.45l2.26,.12,23.11,1.24h0Z"/>
        <path class="cls-6" d="M673.13,328.85l217.44,11.65s-49.46-62.96-87.76-99.51c-.63-.6-1.25-1.19-1.87-1.77,0,0-.01-.01-.02-.02-.47-.45-.95-.89-1.42-1.33,0,0,0,0,0,0-.47-.44-.94-.87-1.41-1.3,0,0-.02-.02-.03-.02-.46-.42-.92-.84-1.37-1.25-.02-.02-.04-.03-.05-.05-.45-.41-.89-.81-1.34-1.2-.02-.02-.04-.04-.07-.06-.44-.39-.88-.78-1.31-1.16-.03-.02-.05-.04-.08-.07-.43-.38-.86-.75-1.29-1.12-.03-.02-.06-.05-.08-.07-.42-.36-.84-.72-1.26-1.08-.04-.03-.08-.07-.12-.1-.41-.35-.81-.69-1.21-1.02-.04-.04-.09-.07-.13-.11-.4-.33-.79-.66-1.18-.98-.05-.04-.1-.08-.16-.13-.38-.31-.76-.62-1.14-.92-.06-.05-.12-.09-.17-.14-.37-.29-.73-.59-1.1-.87-.07-.05-.14-.11-.21-.16-.35-.27-.7-.55-1.05-.81-.08-.06-.15-.12-.23-.17-.34-.26-.68-.51-1.01-.76-.08-.06-.16-.12-.23-.17-.33-.24-.65-.48-.97-.72-.09-.07-.18-.13-.27-.19-.31-.22-.62-.45-.93-.66-.09-.06-.18-.12-.27-.19-.3-.21-.6-.42-.9-.62-.1-.07-.2-.13-.3-.2-.28-.19-.57-.38-.85-.56-.1-.07-.21-.13-.31-.2-.27-.18-.55-.35-.81-.52-.11-.07-.21-.13-.32-.2-.26-.16-.52-.32-.78-.48-.11-.07-.23-.13-.34-.2-.25-.15-.49-.29-.73-.43-.12-.07-.24-.13-.36-.2-.23-.13-.46-.26-.69-.38-.13-.07-.25-.13-.38-.2-.22-.11-.43-.23-.64-.33-.13-.06-.25-.12-.38-.18-.2-.1-.41-.2-.61-.29-.13-.06-.26-.11-.39-.17-.19-.09-.39-.17-.58-.25-.14-.06-.27-.11-.41-.16-.18-.07-.35-.15-.53-.21-.14-.05-.28-.1-.42-.15-.16-.06-.33-.12-.49-.17-.14-.05-.28-.08-.42-.13-.15-.05-.31-.1-.46-.14-.15-.04-.29-.07-.44-.11-.13-.03-.27-.07-.4-.1-.16-.03-.31-.06-.47-.09-.11-.02-.23-.05-.34-.06-.17-.03-.33-.04-.49-.06-.09,0-.19-.03-.28-.03-.25-.02-.5-.03-.74-.03-.28,0-.56,.01-.86,.04-.1,0-.2,.02-.3,.03-.2,.02-.4,.04-.6,.07-.12,.02-.25,.05-.37,.07-.19,.03-.37,.07-.56,.11-.14,.03-.28,.07-.41,.1-.19,.05-.37,.09-.56,.14-.15,.04-.3,.09-.44,.13-.19,.06-.38,.12-.57,.18-.15,.05-.31,.11-.47,.16-.19,.07-.38,.14-.58,.21-.16,.06-.33,.13-.49,.19-.2,.08-.39,.16-.6,.25-.17,.07-.34,.15-.51,.22-.2,.09-.41,.18-.61,.28-.17,.08-.35,.16-.53,.25-.21,.1-.42,.21-.63,.31-.18,.09-.36,.18-.54,.28-.09,.04-.17,.09-.26,.13-.03,.02-.07,.04-.1,.06-.1,.05-.19,.11-.29,.16-.18,.1-.37,.2-.55,.3-.22,.12-.45,.25-.67,.38-.19,.11-.37,.21-.56,.32-.23,.14-.47,.28-.7,.42-.19,.11-.37,.22-.56,.34-.24,.15-.49,.31-.74,.47-.18,.12-.37,.23-.55,.35-.27,.17-.54,.36-.82,.54-.17,.11-.33,.22-.5,.33-.43,.29-.87,.59-1.32,.9-.18,.13-.36,.26-.55,.39-.27,.19-.54,.38-.82,.58-.18,.13-.37,.27-.56,.4-.1,.07-.2,.15-.3,.22-.18,.13-.36,.26-.53,.39-.2,.14-.39,.29-.59,.44-.05,.04-.11,.08-.16,.12-.22,.16-.44,.33-.66,.5-.23,.18-.47,.36-.71,.54-.24,.19-.48,.37-.73,.56-.24,.19-.49,.38-.73,.57-.24,.19-.48,.38-.72,.57-.25,.2-.5,.4-.75,.6-.24,.19-.48,.39-.73,.59-.25,.21-.51,.41-.76,.62-.24,.2-.49,.4-.73,.61-.26,.21-.52,.43-.78,.65-.24,.2-.49,.41-.73,.61-.27,.22-.53,.45-.8,.68-.24,.2-.48,.41-.72,.62-.27,.24-.55,.47-.83,.71-.24,.2-.47,.41-.71,.62-.28,.25-.56,.49-.85,.74-.23,.21-.47,.41-.7,.62-.29,.25-.57,.51-.86,.77-.23,.2-.46,.41-.69,.62-.3,.27-.59,.53-.89,.8-.21,.19-.42,.38-.63,.57-.32,.29-.64,.58-.97,.88-.11,.1-.23,.21-.34,.31-.88,.81-1.77,1.63-2.66,2.47-.04,.04-.09,.08-.13,.12h0c-1.15,1.08-2.31,2.18-3.47,3.29-34.54,33.16-73.8,81.45-73.8,81.45l2.26,.12,23.11,1.24h0Z"/>
        <g>
          <g>
            <path class="cls-7" d="M391.84,383.79l-306.81-16.44s49.6-61.02,93.25-102.92c22.81-21.9,44-38.58,55.62-38.58,9.83,0,27.26,13.31,47.05,32.2,48.39,46.19,110.89,125.74,110.89,125.74Z"/>
            <path class="cls-8" d="M233.53,225.87c-2.07,12.71-10.16,23.47-14.97,35.69-.56,1.41-1.08,2.84-1.53,4.29-.03,.11-.06,.23-.09,.34-3.8,13.92,3.03,29.77-3.91,43.66-4,7-12,13-20,15-30.42,7.93-56.02,22.87-75.95,44.22l-32.05-1.72s49.61-61.03,93.25-102.92c1.47-1.41,2.93-2.8,4.38-4.16,1.32-1.24,2.63-2.46,3.94-3.65,.49-.46,.98-.91,1.48-1.35,1.45-1.32,2.89-2.61,4.32-3.87,.84-.74,1.67-1.47,2.5-2.18,.9-.77,1.78-1.53,2.66-2.27s1.76-1.47,2.62-2.18c.94-.78,1.88-1.54,2.81-2.28,.41-.32,.81-.65,1.21-.96,2.42-1.91,4.76-3.68,7.03-5.27,.37-.26,.75-.52,1.12-.78,.42-.29,.84-.58,1.26-.86,.42-.29,.84-.56,1.25-.83,1.75-1.14,3.44-2.18,5.06-3.1,.02-.02,.04-.03,.06-.04,.95-.53,1.88-1.02,2.79-1.48,.04-.03,.07-.05,.11-.06,.05-.02,.11-.05,.16-.07,.37-.18,.73-.35,1.08-.52,3.57-1.64,6.73-2.57,9.41-2.65Z"/>
          </g>
          <path class="cls-1" d="M197,272.85c13.57-.97,26.19-16.96,37.88,1.15,1.02,1.58,2.94,2.45,4.74,1.91,.59-.18,1.1-.5,1.38-1.06,2-7,1-24,12-20,8,2,12,20,19,12,2-1,1-5,2-6,2.17-1.96,4.3-2.97,6.4-3.32-19.56-18.61-36.76-31.68-46.5-31.68-10.87,0-30.12,14.6-51.23,34.42,4.92,6.69,9.63,12.58,14.34,12.58Z"/>
          <path class="cls-9" d="M233.53,225.87c-2.07,12.71-10.16,23.47-14.97,35.69-.56,1.41-1.08,2.84-1.53,4.29-.03,.11-.06,.23-.09,.34-6.4,1.8-13.05,6.17-19.94,6.66-4.71,0-9.42-5.9-14.34-12.58,1.32-1.24,2.63-2.46,3.94-3.65,.49-.46,.98-.91,1.48-1.35,1.45-1.32,2.89-2.61,4.32-3.87,.84-.74,1.67-1.47,2.5-2.18,.9-.77,1.78-1.53,2.66-2.27,1.64-1.39,3.25-2.71,4.84-3.98,.2-.16,.4-.33,.59-.48,.41-.32,.81-.65,1.21-.96,2.42-1.91,4.76-3.68,7.03-5.27,.37-.26,.75-.52,1.12-.78,.1-.07,.2-.14,.3-.2,2.54-1.75,4.97-3.3,7.27-4.59,.02-.02,.04-.03,.06-.04,.95-.54,1.88-1.04,2.79-1.48,.04-.03,.07-.05,.11-.06,.05-.02,.11-.05,.16-.07,.37-.18,.73-.35,1.08-.52,3.57-1.64,6.73-2.57,9.41-2.65Z"/>
        </g>
        <g>
          <path class="cls-7" d="M690.49,383.79l-306.81-16.44s49.6-61.02,93.25-102.92c22.81-21.9,44-38.58,55.62-38.58,9.83,0,27.26,13.31,47.05,32.2,48.39,46.19,110.89,125.74,110.89,125.74Z"/>
          <path class="cls-8" d="M532.18,225.87c-2.01,12.34-9.69,22.84-14.53,34.62-.15,.36-.3,.71-.44,1.07-.56,1.41-1.08,2.84-1.53,4.29-4,14,3,30-4,44-4,7-12,13-20,15-30.42,7.93-56.02,22.87-75.95,44.22l-32.05-1.72s49.61-61.03,93.25-102.92c4.57-4.38,9.06-8.55,13.43-12.42,1.09-.97,2.18-1.92,3.25-2.84,.54-.47,1.08-.93,1.61-1.38,1.83-1.56,3.64-3.07,5.41-4.5,.34-.26,.67-.53,1.01-.8,3.25-2.6,6.38-4.95,9.36-7.01,.42-.29,.84-.58,1.26-.86,.45-.31,.9-.61,1.34-.89,.67-.44,1.33-.86,1.98-1.26,.34-.21,.68-.42,1.01-.62,.63-.38,1.26-.75,1.87-1.1,.04-.02,.07-.05,.11-.06,.65-.36,1.29-.71,1.92-1.04,.41-.22,.81-.43,1.2-.61,.37-.18,.73-.35,1.08-.52,3.57-1.64,6.73-2.57,9.41-2.65Z"/>
        </g>
        <path class="cls-1" d="M514,252.85c3,2,3,9,6,12,1,1,5,1,6,0,4-5,4-16,13-13,6,2,6,13,12,12,4-1,3-8,6-12,4-6,6,8,11,4,1.81-1.36,3.14-2.98,4.11-4.77-16.65-15.11-30.99-25.22-39.56-25.22-9.3,0-24.72,10.68-42.19,26.16,2.33,2.72,4.21,6.41,5.64,7.84,6,5,10-12,18-7Z"/>
        <path class="cls-9" d="M532.18,225.87c-2.01,12.34-9.69,22.84-14.53,34.62-1.04-3.02-1.73-6.36-3.65-7.64-8-5-12,12-18,7-1.43-1.43-3.31-5.12-5.64-7.84,1.09-.97,2.18-1.92,3.25-2.84,.54-.47,1.08-.93,1.61-1.38,1.83-1.56,3.64-3.07,5.41-4.5,.34-.26,.67-.53,1.01-.8,3.25-2.6,6.38-4.95,9.36-7.01,.42-.29,.84-.58,1.26-.86,.45-.31,.9-.61,1.34-.89,.67-.45,1.33-.87,1.98-1.26,.34-.21,.68-.42,1.01-.62,.63-.38,1.26-.75,1.87-1.1,.04-.02,.07-.05,.11-.06,.65-.37,1.29-.72,1.92-1.04,.41-.22,.81-.43,1.2-.61,.37-.18,.73-.35,1.08-.52,3.57-1.64,6.73-2.57,9.41-2.65Z"/>
        <g>
          <g>
            <path class="cls-2" d="M543.51,383.79l-306.81-16.44s49.6-61.02,93.25-102.92c22.81-21.9,44-38.58,55.62-38.58,9.83,0,27.26,13.31,47.05,32.2,48.39,46.19,110.89,125.74,110.89,125.74Z"/>
            <path class="cls-3" d="M385.2,225.87c-2.07,12.71-10.16,23.47-14.97,35.69-.56,1.41-1.08,2.84-1.53,4.29-4,14,3,30-4,44-4,7-12,13-20,15-30.42,7.93-56.02,22.87-75.95,44.22l-32.05-1.72s49.61-61.03,93.25-102.92c7.58-7.27,14.97-13.97,21.9-19.66,.94-.78,1.88-1.54,2.81-2.28,3.25-2.6,6.38-4.96,9.36-7.01,.42-.29,.84-.58,1.26-.86,.42-.29,.84-.56,1.25-.83,2.8-1.83,5.44-3.38,7.91-4.62,.09-.05,.18-.09,.27-.13,.37-.18,.73-.35,1.08-.52,3.57-1.64,6.73-2.57,9.41-2.65Z"/>
          </g>
          <path class="cls-1" d="M432.62,258.05c-7.37-.42-16.77-1.59-24.28-1.2-13.04,.67-15.64,8.67-34.08,5.36-18.45-3.31-18.89,.64-32.25,4.64-5.86,1.75-9.65,.05-12.06-2.42,22.81-21.9,44-38.58,55.62-38.58,9.83,0,27.26,13.31,47.05,32.2Z"/>
          <path class="cls-9" d="M385.2,225.87c-2.07,12.71-10.16,23.47-14.97,35.69-14.57-2.04-15.91,1.6-28.22,5.29-5.86,1.75-9.65,.05-12.06-2.42,7.58-7.27,14.97-13.97,21.9-19.66,.94-.78,1.88-1.54,2.81-2.28,3.25-2.6,6.38-4.96,9.36-7.01,.42-.29,.84-.58,1.26-.86,.42-.29,.84-.56,1.25-.83,2.79-1.84,5.44-3.39,7.91-4.62,.09-.05,.18-.09,.27-.13,.37-.18,.73-.35,1.08-.52,3.57-1.64,6.73-2.57,9.41-2.65Z"/>
        </g>
        <g>
          <g>
            <path class="cls-2" d="M854.99,362.94l-306.81-16.44s49.6-61.02,93.25-102.92c22.81-21.9,44-38.58,55.62-38.58,9.83,0,27.26,13.31,47.05,32.2,48.39,46.19,110.89,125.74,110.89,125.74Z"/>
            <path class="cls-3" d="M696.68,205.02c-2.07,12.71-10.16,23.47-14.97,35.69-.56,1.41-1.08,2.84-1.53,4.29-4,14,3,30-4,44-4,7-12,13-20,15-30.42,7.93-56.02,22.87-75.95,44.22l-32.05-1.72s49.61-61.03,93.25-102.92c7.58-7.27,14.97-13.97,21.9-19.66,.94-.78,1.88-1.54,2.81-2.28,3.25-2.6,6.38-4.96,9.36-7.01,.42-.29,.84-.58,1.26-.86,.42-.29,.84-.56,1.25-.83,2.8-1.83,5.44-3.38,7.91-4.62,.09-.05,.18-.09,.27-.13,.37-.18,.73-.35,1.08-.52,3.57-1.64,6.73-2.57,9.41-2.65Z"/>
          </g>
          <path class="cls-1" d="M744.1,237.2c-7.37-.42-16.77-1.59-24.28-1.2-13.04,.67-15.64,8.67-34.08,5.36-18.45-3.31-18.89,.64-32.25,4.64-5.86,1.75-9.65,.05-12.06-2.42,22.81-21.9,44-38.58,55.62-38.58,9.83,0,27.26,13.31,47.05,32.2Z"/>
          <path class="cls-9" d="M696.68,205.02c-2.07,12.71-10.16,23.47-14.97,35.69-14.57-2.04-15.91,1.6-28.22,5.29-5.86,1.75-9.65,.05-12.06-2.42,7.58-7.27,14.97-13.97,21.9-19.66,.94-.78,1.88-1.54,2.81-2.28,3.25-2.6,6.38-4.96,9.36-7.01,.42-.29,.84-.58,1.26-.86,.42-.29,.84-.56,1.25-.83,2.79-1.84,5.44-3.39,7.91-4.62,.09-.05,.18-.09,.27-.13,.37-.18,.73-.35,1.08-.52,3.57-1.64,6.73-2.57,9.41-2.65Z"/>
        </g>
        <g>
          <g>
            <path class="cls-2" d="M225.48,396.01l-306.81-16.44s49.6-61.02,93.25-102.92c22.81-21.9,44-38.58,55.62-38.58,9.83,0,27.26,13.31,47.05,32.2,48.39,46.19,110.89,125.74,110.89,125.74Z"/>
            <path class="cls-3" d="M67.17,238.09c-2.07,12.71-10.16,23.47-14.97,35.69-.56,1.41-1.08,2.84-1.53,4.29-4,14,3,30-4,44-4,7-12,13-20,15-30.42,7.93-56.02,22.87-75.95,44.22l-32.05-1.72s49.61-61.03,93.25-102.92c7.58-7.27,14.97-13.97,21.9-19.66,.94-.78,1.88-1.54,2.81-2.28,3.25-2.6,6.38-4.96,9.36-7.01,.42-.29,.84-.58,1.26-.86,.42-.29,.84-.56,1.25-.83,2.8-1.83,5.44-3.38,7.91-4.62,.09-.05,.18-.09,.27-.13,.37-.18,.73-.35,1.08-.52,3.57-1.64,6.73-2.57,9.41-2.65Z"/>
          </g>
          <path class="cls-1" d="M114.59,270.27c-7.37-.42-16.77-1.59-24.28-1.2-13.04,.67-15.64,8.67-34.08,5.36-18.45-3.31-18.89,.64-32.25,4.64-5.86,1.75-9.65,.05-12.06-2.42,22.81-21.9,44-38.58,55.62-38.58,9.83,0,27.26,13.31,47.05,32.2Z"/>
          <path class="cls-9" d="M67.17,238.09c-2.07,12.71-10.16,23.47-14.97,35.69-14.57-2.04-15.91,1.6-28.22,5.29-5.86,1.75-9.65,.05-12.06-2.42,7.58-7.27,14.97-13.97,21.9-19.66,.94-.78,1.88-1.54,2.81-2.28,3.25-2.6,6.38-4.96,9.36-7.01,.42-.29,.84-.58,1.26-.86,.42-.29,.84-.56,1.25-.83,2.79-1.84,5.44-3.39,7.91-4.62,.09-.05,.18-.09,.27-.13,.37-.18,.73-.35,1.08-.52,3.57-1.64,6.73-2.57,9.41-2.65Z"/>
        </g>
      </g>
    </g>
  </g>
  <g id="BACKGROUND_1" data-name="BACKGROUND 1">
    <g class="cls-4">
      <path class="cls-6" d="M-206.87,355.66l217.44,11.65s-49.46-62.96-87.76-99.51c-.63-.6-1.25-1.19-1.87-1.77,0,0-.01-.01-.02-.02-.47-.45-.95-.89-1.42-1.33,0,0,0,0,0,0-.47-.44-.94-.87-1.41-1.3,0,0-.02-.02-.03-.02-.46-.42-.92-.84-1.37-1.25-.02-.02-.04-.03-.05-.05-.45-.41-.89-.81-1.34-1.2-.02-.02-.04-.04-.07-.06-.44-.39-.88-.78-1.31-1.16-.03-.02-.05-.04-.08-.07-.43-.38-.86-.75-1.29-1.12-.03-.02-.06-.05-.08-.07-.42-.36-.84-.72-1.26-1.08-.04-.03-.08-.07-.12-.1-.41-.35-.81-.69-1.21-1.02-.04-.04-.09-.07-.13-.11-.4-.33-.79-.66-1.18-.98-.05-.04-.1-.08-.16-.13-.38-.31-.76-.62-1.14-.92-.06-.05-.12-.09-.17-.14-.37-.29-.73-.59-1.1-.87-.07-.05-.14-.11-.21-.16-.35-.27-.7-.55-1.05-.81-.08-.06-.15-.12-.23-.17-.34-.26-.68-.51-1.01-.76-.08-.06-.16-.12-.23-.17-.33-.24-.65-.48-.98-.72-.09-.07-.18-.13-.27-.19-.31-.22-.62-.45-.93-.66-.09-.06-.18-.12-.27-.19-.3-.21-.6-.42-.9-.62-.1-.07-.2-.13-.3-.2-.28-.19-.57-.38-.85-.56-.1-.07-.21-.13-.31-.2-.27-.18-.55-.35-.81-.52-.11-.07-.21-.13-.32-.2-.26-.16-.52-.32-.78-.48-.11-.07-.23-.13-.34-.2-.25-.15-.49-.29-.73-.43-.12-.07-.24-.13-.36-.2-.23-.13-.46-.26-.69-.38-.13-.07-.25-.13-.38-.2-.22-.11-.43-.23-.64-.33-.13-.06-.25-.12-.38-.18-.2-.1-.41-.2-.61-.29-.13-.06-.26-.11-.39-.17-.19-.09-.39-.17-.58-.25-.14-.06-.27-.11-.41-.16-.18-.07-.35-.15-.53-.21-.14-.05-.28-.1-.42-.15-.16-.06-.33-.12-.49-.17-.14-.05-.28-.08-.42-.13-.15-.05-.31-.1-.46-.14s-.29-.07-.44-.11c-.13-.03-.27-.07-.4-.1-.16-.03-.31-.06-.47-.09-.11-.02-.23-.05-.34-.06-.17-.03-.33-.04-.49-.06-.09,0-.19-.03-.28-.03-.25-.02-.5-.03-.74-.03-.28,0-.56,.01-.86,.04-.1,0-.2,.02-.3,.03-.2,.02-.4,.04-.6,.07-.12,.02-.25,.05-.37,.07-.19,.03-.37,.07-.56,.11-.14,.03-.28,.07-.41,.1-.19,.05-.37,.09-.56,.14-.15,.04-.3,.09-.44,.13-.19,.06-.38,.12-.57,.18-.15,.05-.31,.11-.47,.16-.19,.07-.38,.14-.58,.21-.16,.06-.33,.13-.49,.19-.2,.08-.4,.16-.6,.25-.17,.07-.34,.15-.51,.22-.2,.09-.41,.18-.61,.28-.17,.08-.35,.16-.53,.25-.21,.1-.42,.21-.63,.31-.18,.09-.36,.18-.54,.28-.09,.04-.17,.09-.26,.13-.03,.02-.07,.04-.1,.06-.1,.05-.19,.11-.29,.16-.18,.1-.37,.2-.55,.3-.22,.12-.45,.25-.67,.38-.19,.11-.37,.21-.56,.32-.23,.14-.47,.28-.7,.42-.19,.11-.37,.22-.56,.34-.24,.15-.49,.31-.74,.47-.18,.12-.37,.23-.55,.35-.27,.17-.54,.36-.82,.54-.17,.11-.33,.22-.5,.33-.43,.29-.87,.59-1.32,.9-.18,.13-.36,.26-.55,.39-.27,.19-.54,.38-.82,.58-.18,.13-.37,.27-.56,.4-.1,.07-.2,.15-.3,.22-.18,.13-.36,.26-.53,.39-.2,.14-.39,.29-.59,.44-.05,.04-.11,.08-.16,.12-.22,.16-.44,.33-.66,.5-.24,.18-.47,.36-.71,.54-.24,.19-.48,.37-.73,.56-.24,.19-.49,.38-.73,.57-.24,.19-.48,.38-.72,.57-.25,.2-.5,.4-.75,.6-.24,.19-.48,.39-.73,.59-.25,.21-.51,.41-.76,.62-.24,.2-.49,.4-.73,.61-.26,.21-.52,.43-.78,.65-.24,.2-.49,.41-.73,.61-.27,.22-.53,.45-.8,.68-.24,.2-.48,.41-.72,.62-.27,.24-.55,.47-.83,.71-.24,.2-.47,.41-.71,.62-.28,.25-.56,.49-.85,.74-.23,.21-.47,.41-.7,.62-.29,.25-.57,.51-.86,.77-.23,.2-.46,.41-.69,.62-.3,.27-.59,.53-.89,.8-.21,.19-.42,.38-.63,.57-.32,.29-.64,.58-.97,.88-.11,.1-.23,.21-.34,.31-.88,.81-1.77,1.63-2.66,2.47-.04,.04-.09,.08-.13,.12h0c-1.15,1.08-2.31,2.18-3.47,3.29-34.54,33.16-73.8,81.45-73.8,81.45l2.26,.12,23.11,1.24h0Z"/>
    </g>
  </g>
</svg>