<?xml version="1.0" encoding="UTF-8"?>
<svg xmlns="http://www.w3.org/2000/svg" xmlns:xlink="http://www.w3.org/1999/xlink" viewBox="0 0 750 500">
  <defs>
    <style>
      .cls-1 {
        fill: #30272b;
      }

      .cls-2 {
        fill: #fff;
      }

      .cls-3 {
        fill: #a0a0a0;
      }

      .cls-4 {
        fill: #973141;
      }

      .cls-5 {
        fill: #f0be5f;
      }

      .cls-6 {
        fill: #ebf4ff;
      }

      .cls-7 {
        fill: #782934;
      }

      .cls-8 {
        clip-path: url(#clippath);
      }

      .cls-9 {
        fill: #cce6f5;
      }

      .cls-10 {
        fill: none;
      }

      .cls-11 {
        fill: #4c9bc6;
      }
    </style>
    <clipPath id="clippath">
      <rect class="cls-10" x="-600" width="500" height="500"/>
    </clipPath>
  </defs>
  <g id="BACKGROUND_2" data-name="BACKGROUND 2">
    <g id="landscape">
      <g id="maison_père_noël" data-name="maison père noël">
        <g>
          <g>
            <path class="cls-9" d="M590.81,329.81h2.34c1.15,0,2.19,.58,2.59,1.45l10.28,22.36c.29,.62-.29,1.29-1.11,1.29h-2.56l-11.54-25.1Z"/>
            <g>
              <polygon class="cls-7" points="583.54 334.45 583.54 379.82 602.35 379.82 602.35 354.91 592.94 334.45 583.54 334.45"/>
              <path class="cls-4" d="M602.35,356.33v23.49h-18.82v-23.8c.15-.11,.28-.25,.35-.41l9.06-18.58,9.4,19.3Z"/>
            </g>
            <g>
              <rect class="cls-1" x="530.68" y="354.3" width="52.85" height="25.52"/>
              <rect class="cls-7" x="530.68" y="355.98" width="52.85" height="23.84"/>
            </g>
            <path class="cls-6" d="M594.85,330.3l-1.91,4.15-7.86,17.11-1.19,2.6c-.08,.17-.21,.31-.36,.43-.27,.21-.62,.33-1,.33h-53.97c-1.01,0-1.71-.82-1.36-1.58l10.14-22.05c.4-.88,1.45-1.47,2.63-1.47h53.18c.63,0,1.22,.18,1.7,.48Z"/>
            <path class="cls-9" d="M594.85,330.29l-1.83,4.09-7.55,16.88h-21.84c-1.58,0-2.69-1.08-2.13-2.08l10.62-19.36h21.1c.61,0,1.17,.18,1.63,.47Z"/>
            <rect class="cls-9" x="531.09" y="354.92" width=".41" height="1.09"/>
            <rect class="cls-9" x="533.29" y="354.92" width=".41" height="1.09"/>
            <rect class="cls-9" x="535.5" y="354.92" width=".41" height="1.09"/>
            <rect class="cls-9" x="537.71" y="354.92" width=".41" height="1.09"/>
            <rect class="cls-9" x="539.91" y="354.92" width=".41" height="1.09"/>
            <rect class="cls-9" x="542.12" y="354.92" width=".41" height="1.09"/>
            <rect class="cls-9" x="544.32" y="354.92" width=".41" height="1.09"/>
            <rect class="cls-9" x="546.53" y="354.92" width=".41" height="1.09"/>
            <rect class="cls-9" x="548.73" y="354.92" width=".41" height="1.09"/>
            <rect class="cls-9" x="550.94" y="354.92" width=".41" height="1.09"/>
            <rect class="cls-9" x="553.15" y="354.92" width=".41" height="1.09"/>
            <rect class="cls-9" x="555.35" y="354.92" width=".41" height="1.09"/>
            <rect class="cls-9" x="557.56" y="354.92" width=".41" height="1.09"/>
            <rect class="cls-9" x="559.76" y="354.92" width=".41" height="1.09"/>
            <rect class="cls-9" x="561.97" y="354.92" width=".41" height="1.09"/>
            <rect class="cls-9" x="564.17" y="354.92" width=".41" height="1.09"/>
            <rect class="cls-9" x="566.38" y="354.92" width=".41" height="1.09"/>
            <rect class="cls-9" x="568.59" y="354.92" width=".41" height="1.09"/>
            <rect class="cls-9" x="570.79" y="354.92" width=".41" height="1.09"/>
            <rect class="cls-9" x="573" y="354.92" width=".41" height="1.09"/>
            <rect class="cls-9" x="575.2" y="354.92" width=".41" height="1.09"/>
            <rect class="cls-9" x="577.41" y="354.92" width=".41" height="1.09"/>
            <rect class="cls-9" x="579.61" y="354.92" width=".41" height="1.09"/>
            <rect class="cls-9" x="581.82" y="354.92" width=".41" height="1.09"/>
            <rect class="cls-1" x="567.37" y="355.88" width="3.25" height="23.94"/>
            <rect class="cls-1" x="543.9" y="359.97" width="10.48" height="12.34"/>
            <g>
              <g>
                <rect class="cls-5" x="549.71" y="361.2" width="3.61" height="4.37"/>
                <rect class="cls-5" x="544.92" y="361.2" width="3.6" height="4.37"/>
              </g>
              <g>
                <rect class="cls-5" x="549.71" y="366.71" width="3.61" height="4.37"/>
                <rect class="cls-5" x="544.92" y="366.71" width="3.6" height="4.37"/>
              </g>
            </g>
          </g>
          <g>
            <path class="cls-9" d="M660.4,316.5h3.57c1.76,0,3.33,.77,3.95,1.94l15.67,29.8c.44,.83-.43,1.72-1.69,1.72h-3.9l-17.59-33.45Z"/>
            <g>
              <polygon class="cls-7" points="649.3 322.68 649.3 383.14 677.99 383.14 677.99 349.95 663.65 322.68 649.3 322.68"/>
              <path class="cls-4" d="M677.99,351.84v31.3h-28.69v-31.72c.23-.15,.42-.33,.54-.55l13.81-24.77,14.34,25.73Z"/>
              <rect class="cls-1" x="660.04" y="338.9" width="7.21" height="10.23"/>
              <g>
                <g>
                  <rect class="cls-5" x="664.04" y="339.91" width="2.48" height="3.63"/>
                  <rect class="cls-5" x="660.74" y="339.91" width="2.48" height="3.63"/>
                </g>
                <g>
                  <rect class="cls-5" x="664.04" y="344.49" width="2.48" height="3.63"/>
                  <rect class="cls-5" x="660.74" y="344.49" width="2.48" height="3.63"/>
                </g>
              </g>
            </g>
            <g>
              <g>
                <rect class="cls-1" x="568.71" y="349.14" width="80.59" height="34.01"/>
                <rect class="cls-7" x="568.71" y="351.38" width="80.59" height="31.77"/>
              </g>
              <rect class="cls-1" x="603.16" y="362.1" width="9.87" height="21.04"/>
              <rect class="cls-1" x="625.47" y="358.69" width="10.48" height="12.34"/>
              <g>
                <g>
                  <rect class="cls-5" x="631.28" y="359.92" width="3.61" height="4.37"/>
                  <rect class="cls-5" x="626.49" y="359.92" width="3.6" height="4.37"/>
                </g>
                <g>
                  <rect class="cls-5" x="631.28" y="365.43" width="3.61" height="4.37"/>
                  <rect class="cls-5" x="626.49" y="365.43" width="3.6" height="4.37"/>
                </g>
              </g>
              <rect class="cls-1" x="580.04" y="358.69" width="10.48" height="12.34"/>
              <g>
                <g>
                  <rect class="cls-5" x="585.85" y="359.92" width="3.61" height="4.37"/>
                  <rect class="cls-5" x="581.05" y="359.92" width="3.6" height="4.37"/>
                </g>
                <g>
                  <rect class="cls-5" x="585.85" y="365.43" width="3.61" height="4.37"/>
                  <rect class="cls-5" x="581.05" y="365.43" width="3.6" height="4.37"/>
                </g>
              </g>
              <circle class="cls-3" cx="604.83" cy="373.49" r=".53"/>
            </g>
            <path class="cls-6" d="M666.56,317.14l-2.91,5.54-13.81,26.26c-.12,.23-.31,.42-.54,.58-.41,.28-.95,.44-1.53,.44h-82.29c-1.54,0-2.61-1.09-2.07-2.11l15.45-29.38c.62-1.18,2.22-1.97,4.01-1.97h81.1c.96,0,1.86,.24,2.59,.64Z"/>
            <g>
              <path class="cls-7" d="M662.42,311.12v5.4c-.51,.44-1.14,1.14-1.79,1.95-.61,.77-1.26,1.65-1.85,2.49h-3.68v-9.84h7.32Z"/>
              <path class="cls-6" d="M663.05,309.47v.67c0,.54-.43,.97-.95,.97h-6.66c-.53,0-.95-.44-.95-.97v-.67c0-.54,.43-.97,.95-.97h6.66c.53,0,.95,.44,.95,.97Z"/>
              <path class="cls-9" d="M662.09,308.5c.53,0,.95,.44,.95,.97v.67c0,.54-.43,.98-.95,.98h-1.47v-2.62h1.47Z"/>
              <path class="cls-4" d="M662.42,311.12v5.4c-.51,.44-1.14,1.14-1.79,1.95v-7.35h1.79Z"/>
            </g>
            <g>
              <rect class="cls-1" x="587.32" y="329.57" width="9.83" height="10.51"/>
              <g>
                <g>
                  <rect class="cls-5" x="592.76" y="330.99" width="3.14" height="3.39"/>
                  <rect class="cls-5" x="588.59" y="330.99" width="3.14" height="3.39"/>
                </g>
                <g>
                  <rect class="cls-5" x="592.76" y="335.27" width="3.14" height="3.39"/>
                  <rect class="cls-5" x="588.59" y="335.27" width="3.14" height="3.39"/>
                </g>
              </g>
              <polygon class="cls-4" points="597.16 340.08 601.78 329.57 597.16 329.57 597.16 340.08"/>
              <polygon class="cls-4" points="599.89 329.57 601.78 329.57 599.89 333.87 599.89 329.57"/>
              <polygon class="cls-7" points="597.16 329.57 592.24 323.8 587.32 329.57 597.16 329.57"/>
              <polygon class="cls-9" points="602.3 329.57 596.58 323.54 591.66 323.54 597.14 329.57 602.3 329.57"/>
              <polygon class="cls-9" points="585.85 329.57 591.27 323.54 592.87 323.54 587.32 329.57 585.85 329.57"/>
              <rect class="cls-1" x="620.25" y="329.57" width="9.83" height="10.51"/>
              <g>
                <g>
                  <rect class="cls-5" x="625.68" y="330.99" width="3.14" height="3.39"/>
                  <rect class="cls-5" x="621.51" y="330.99" width="3.14" height="3.39"/>
                </g>
                <g>
                  <rect class="cls-5" x="625.68" y="335.27" width="3.14" height="3.39"/>
                  <rect class="cls-5" x="621.51" y="335.27" width="3.14" height="3.39"/>
                </g>
              </g>
              <polygon class="cls-4" points="630.08 340.08 634.7 329.57 630.08 329.57 630.08 340.08"/>
              <polygon class="cls-4" points="632.81 329.57 634.7 329.57 632.81 333.87 632.81 329.57"/>
              <polygon class="cls-7" points="630.08 329.57 625.17 323.8 620.25 329.57 630.08 329.57"/>
              <polygon class="cls-9" points="635.23 329.57 629.51 323.54 624.58 323.54 630.07 329.57 635.23 329.57"/>
              <polygon class="cls-9" points="618.77 329.57 624.19 323.54 625.8 323.54 620.25 329.57 618.77 329.57"/>
            </g>
            <rect class="cls-9" x="569.33" y="349.96" width=".62" height="1.45"/>
            <rect class="cls-9" x="572.7" y="349.96" width=".62" height="1.45"/>
            <rect class="cls-9" x="576.06" y="349.96" width=".62" height="1.45"/>
            <rect class="cls-9" x="579.42" y="349.96" width=".62" height="1.45"/>
            <rect class="cls-9" x="582.79" y="349.96" width=".62" height="1.45"/>
            <rect class="cls-9" x="586.15" y="349.96" width=".62" height="1.45"/>
            <rect class="cls-9" x="589.51" y="349.96" width=".62" height="1.45"/>
            <rect class="cls-9" x="592.88" y="349.96" width=".62" height="1.45"/>
            <rect class="cls-9" x="596.24" y="349.96" width=".62" height="1.45"/>
            <rect class="cls-9" x="599.6" y="349.96" width=".62" height="1.45"/>
            <rect class="cls-9" x="602.97" y="349.96" width=".62" height="1.45"/>
            <rect class="cls-9" x="606.33" y="349.96" width=".62" height="1.45"/>
            <rect class="cls-9" x="609.69" y="349.96" width=".62" height="1.45"/>
            <rect class="cls-9" x="613.06" y="349.96" width=".62" height="1.45"/>
            <rect class="cls-9" x="616.42" y="349.96" width=".62" height="1.45"/>
            <rect class="cls-9" x="619.78" y="349.96" width=".62" height="1.45"/>
            <rect class="cls-9" x="623.15" y="349.96" width=".62" height="1.45"/>
            <rect class="cls-9" x="626.51" y="349.96" width=".62" height="1.45"/>
            <rect class="cls-9" x="629.87" y="349.96" width=".62" height="1.45"/>
            <rect class="cls-9" x="633.23" y="349.96" width=".62" height="1.45"/>
            <rect class="cls-9" x="636.6" y="349.96" width=".62" height="1.45"/>
            <rect class="cls-9" x="639.96" y="349.96" width=".62" height="1.45"/>
            <rect class="cls-9" x="643.32" y="349.96" width=".62" height="1.45"/>
            <rect class="cls-9" x="646.69" y="349.96" width=".62" height="1.45"/>
          </g>
        </g>
        <path class="cls-2" d="M693.86,377.06h-26.41c-7.31,0-14.46,1.51-20.56,4.34l-14.07,6.52h61.05v-10.86Z"/>
        <path class="cls-2" d="M504.76,383.14l11.31-5.64c2.23-1.11,4.89-1.71,7.63-1.71h9.88c3.5,0,6.87,.98,9.34,2.73l5.6,3.96-43.76,.66Z"/>
      </g>
    </g>
  </g>
  <g id="BACKGROUND_1" data-name="BACKGROUND 1">
    <g class="cls-8">
      <path class="cls-11" d="M-206.87,355.66l217.44,11.65s-49.46-62.96-87.76-99.51c-.63-.6-1.25-1.19-1.87-1.77,0,0-.01-.01-.02-.02-.47-.45-.95-.89-1.42-1.33,0,0,0,0,0,0-.47-.44-.94-.87-1.41-1.3,0,0-.02-.02-.03-.02-.46-.42-.92-.84-1.37-1.25-.02-.02-.04-.03-.05-.05-.45-.41-.89-.81-1.34-1.2-.02-.02-.04-.04-.07-.06-.44-.39-.88-.78-1.31-1.16-.03-.02-.05-.04-.08-.07-.43-.38-.86-.75-1.29-1.12-.03-.02-.06-.05-.08-.07-.42-.36-.84-.72-1.26-1.08-.04-.03-.08-.07-.12-.1-.41-.35-.81-.69-1.21-1.02-.04-.04-.09-.07-.13-.11-.4-.33-.79-.66-1.18-.98-.05-.04-.1-.08-.16-.13-.38-.31-.76-.62-1.14-.92-.06-.05-.12-.09-.17-.14-.37-.29-.73-.59-1.1-.87-.07-.05-.14-.11-.21-.16-.35-.27-.7-.55-1.05-.81-.08-.06-.15-.12-.23-.17-.34-.26-.68-.51-1.01-.76-.08-.06-.16-.12-.23-.17-.33-.24-.65-.48-.98-.72-.09-.07-.18-.13-.27-.19-.31-.22-.62-.45-.93-.66-.09-.06-.18-.12-.27-.19-.3-.21-.6-.42-.9-.62-.1-.07-.2-.13-.3-.2-.28-.19-.57-.38-.85-.56-.1-.07-.21-.13-.31-.2-.27-.18-.55-.35-.81-.52-.11-.07-.21-.13-.32-.2-.26-.16-.52-.32-.78-.48-.11-.07-.23-.13-.34-.2-.25-.15-.49-.29-.73-.43-.12-.07-.24-.13-.36-.2-.23-.13-.46-.26-.69-.38-.13-.07-.25-.13-.38-.2-.22-.11-.43-.23-.64-.33-.13-.06-.25-.12-.38-.18-.2-.1-.41-.2-.61-.29-.13-.06-.26-.11-.39-.17-.19-.09-.39-.17-.58-.25-.14-.06-.27-.11-.41-.16-.18-.07-.35-.15-.53-.21-.14-.05-.28-.1-.42-.15-.16-.06-.33-.12-.49-.17-.14-.05-.28-.08-.42-.13-.15-.05-.31-.1-.46-.14s-.29-.07-.44-.11c-.13-.03-.27-.07-.4-.1-.16-.03-.31-.06-.47-.09-.11-.02-.23-.05-.34-.06-.17-.03-.33-.04-.49-.06-.09,0-.19-.03-.28-.03-.25-.02-.5-.03-.74-.03-.28,0-.56,.01-.86,.04-.1,0-.2,.02-.3,.03-.2,.02-.4,.04-.6,.07-.12,.02-.25,.05-.37,.07-.19,.03-.37,.07-.56,.11-.14,.03-.28,.07-.41,.1-.19,.05-.37,.09-.56,.14-.15,.04-.3,.09-.44,.13-.19,.06-.38,.12-.57,.18-.15,.05-.31,.11-.47,.16-.19,.07-.38,.14-.58,.21-.16,.06-.33,.13-.49,.19-.2,.08-.4,.16-.6,.25-.17,.07-.34,.15-.51,.22-.2,.09-.41,.18-.61,.28-.17,.08-.35,.16-.53,.25-.21,.1-.42,.21-.63,.31-.18,.09-.36,.18-.54,.28-.09,.04-.17,.09-.26,.13-.03,.02-.07,.04-.1,.06-.1,.05-.19,.11-.29,.16-.18,.1-.37,.2-.55,.3-.22,.12-.45,.25-.67,.38-.19,.11-.37,.21-.56,.32-.23,.14-.47,.28-.7,.42-.19,.11-.37,.22-.56,.34-.24,.15-.49,.31-.74,.47-.18,.12-.37,.23-.55,.35-.27,.17-.54,.36-.82,.54-.17,.11-.33,.22-.5,.33-.43,.29-.87,.59-1.32,.9-.18,.13-.36,.26-.55,.39-.27,.19-.54,.38-.82,.58-.18,.13-.37,.27-.56,.4-.1,.07-.2,.15-.3,.22-.18,.13-.36,.26-.53,.39-.2,.14-.39,.29-.59,.44-.05,.04-.11,.08-.16,.12-.22,.16-.44,.33-.66,.5-.24,.18-.47,.36-.71,.54-.24,.19-.48,.37-.73,.56-.24,.19-.49,.38-.73,.57-.24,.19-.48,.38-.72,.57-.25,.2-.5,.4-.75,.6-.24,.19-.48,.39-.73,.59-.25,.21-.51,.41-.76,.62-.24,.2-.49,.4-.73,.61-.26,.21-.52,.43-.78,.65-.24,.2-.49,.41-.73,.61-.27,.22-.53,.45-.8,.68-.24,.2-.48,.41-.72,.62-.27,.24-.55,.47-.83,.71-.24,.2-.47,.41-.71,.62-.28,.25-.56,.49-.85,.74-.23,.21-.47,.41-.7,.62-.29,.25-.57,.51-.86,.77-.23,.2-.46,.41-.69,.62-.3,.27-.59,.53-.89,.8-.21,.19-.42,.38-.63,.57-.32,.29-.64,.58-.97,.88-.11,.1-.23,.21-.34,.31-.88,.81-1.77,1.63-2.66,2.47-.04,.04-.09,.08-.13,.12h0c-1.15,1.08-2.31,2.18-3.47,3.29-34.54,33.16-73.8,81.45-73.8,81.45l2.26,.12,23.11,1.24h0Z"/>
    </g>
  </g>
</svg>