<?xml version="1.0" encoding="UTF-8"?>
<svg id="Calque_6" data-name="Calque 6" xmlns="http://www.w3.org/2000/svg" viewBox="0 0 502.7 451.82">
  <defs>
    <style>
      .cls-1 {
        fill: #87201e;
      }
    </style>
  </defs>
  <path class="cls-1" d="M209.66,3.88v12.86c0,1.87-1.52,3.39-3.4,3.39h-47.37c-.18,0-.35-.02-.51-.06V2.29c1.25-1.3,3.01-2.11,4.95-2.11h42.64c2.05,0,3.7,1.65,3.7,3.7Z"/>
  <path class="cls-1" d="M266.72,3.88v12.86c0,1.87-1.52,3.39-3.4,3.39h-47.37c-1.35,0-2.45-1.09-2.45-2.43V7.05c0-3.79,3.08-6.87,6.88-6.87h42.64c2.04,0,3.7,1.65,3.7,3.7Z"/>
  <path class="cls-1" d="M323.77,3.88v12.86c0,1.87-1.53,3.39-3.4,3.39h-47.37c-1.36,0-2.45-1.09-2.45-2.43V7.05c0-3.79,3.08-6.87,6.88-6.87h42.64c2.04,0,3.7,1.65,3.7,3.7Z"/>
  <path class="cls-1" d="M340.18,.18V20.13h-10.13c-1.35,0-2.43-1.09-2.43-2.43V7.05c0-3.79,3.08-6.87,6.87-6.87h5.7Z"/>
  <path class="cls-1" d="M173.89,27.53v12.86c0,1.87-1.52,3.39-3.39,3.39h-12.12V23.83h11.82c2.05,0,3.7,1.65,3.7,3.7Z"/>
  <path class="cls-1" d="M230.95,27.53v12.86c0,1.87-1.52,3.39-3.4,3.39h-47.37c-1.35,0-2.43-1.09-2.43-2.43v-10.65c0-3.79,3.07-6.87,6.87-6.87h42.64c2.05,0,3.7,1.65,3.7,3.7Z"/>
  <path class="cls-1" d="M288,27.53v12.86c0,1.87-1.52,3.39-3.4,3.39h-47.37c-1.35,0-2.45-1.09-2.45-2.43v-10.65c0-3.79,3.08-6.87,6.88-6.87h42.64c2.04,0,3.7,1.65,3.7,3.7Z"/>
  <path class="cls-1" d="M340.18,23.83v19.95h-45.89c-1.36,0-2.45-1.09-2.45-2.43v-10.65c0-3.79,3.08-6.87,6.87-6.87h41.47Z"/>
  <path class="cls-1" d="M207.75,51.17v12.86c0,1.87-1.52,3.39-3.4,3.39h-45.96v-19.24c.91-.46,1.94-.71,3.03-.71h42.64c2.04,0,3.7,1.65,3.7,3.7Z"/>
  <path class="cls-1" d="M264.8,51.17v12.86c0,1.87-1.53,3.39-3.4,3.39h-47.37c-1.36,0-2.45-1.09-2.45-2.43v-10.65c0-3.79,3.08-6.87,6.88-6.87h42.64c2.04,0,3.7,1.65,3.7,3.7Z"/>
  <path class="cls-1" d="M321.84,51.17v12.86c0,1.87-1.52,3.39-3.39,3.39h-47.38c-1.35,0-2.43-1.09-2.43-2.43v-10.65c0-3.79,3.08-6.87,6.87-6.87h42.65c2.04,0,3.69,1.65,3.69,3.7Z"/>
  <path class="cls-1" d="M340.18,47.48v19.95h-12.05c-1.35,0-2.43-1.09-2.43-2.43v-10.65c0-3.79,3.08-6.87,6.87-6.87h7.62Z"/>
  <path class="cls-1" d="M173.89,74.82v12.86c0,1.87-1.52,3.39-3.39,3.39h-12.12v-19.95h11.82c2.05,0,3.7,1.65,3.7,3.7Z"/>
  <path class="cls-1" d="M230.95,74.82v12.86c0,1.87-1.52,3.39-3.4,3.39h-47.37c-1.35,0-2.43-1.09-2.43-2.43v-10.65c0-3.79,3.07-6.87,6.87-6.87h42.64c2.05,0,3.7,1.65,3.7,3.7Z"/>
  <path class="cls-1" d="M288,74.82v12.86c0,1.87-1.52,3.39-3.4,3.39h-47.37c-1.35,0-2.45-1.09-2.45-2.43v-10.65c0-3.79,3.08-6.87,6.88-6.87h42.64c2.04,0,3.7,1.65,3.7,3.7Z"/>
  <path class="cls-1" d="M340.18,71.12v19.95h-45.89c-1.36,0-2.45-1.09-2.45-2.43v-10.65c0-3.79,3.08-6.87,6.87-6.87h41.47Z"/>
  <path class="cls-1" d="M211.58,98.47v12.86c0,1.87-1.52,3.39-3.39,3.39h-47.38c-1.35,0-2.43-1.09-2.43-2.43v-10.65c0-3.79,3.08-6.87,6.87-6.87h42.64c2.05,0,3.7,1.65,3.7,3.7Z"/>
  <path class="cls-1" d="M268.64,98.47v12.86c0,1.87-1.52,3.39-3.4,3.39h-47.37c-1.35,0-2.43-1.09-2.43-2.43v-10.65c0-3.79,3.08-6.87,6.87-6.87h42.64c2.05,0,3.7,1.65,3.7,3.7Z"/>
  <path class="cls-1" d="M325.69,98.47v12.86c0,1.87-1.52,3.39-3.4,3.39h-47.37c-1.35,0-2.45-1.09-2.45-2.43v-10.65c0-3.79,3.08-6.87,6.88-6.87h42.64c2.04,0,3.7,1.65,3.7,3.7Z"/>
  <path class="cls-1" d="M340.18,94.77v19.95h-8.2c-1.36,0-2.45-1.09-2.45-2.43v-10.65c0-3.79,3.08-6.87,6.88-6.87h3.77Z"/>
  <path class="cls-1" d="M173.89,122.12v12.86c0,1.87-1.52,3.39-3.39,3.39h-12.12v-19.95h11.82c2.05,0,3.7,1.65,3.7,3.7Z"/>
  <path class="cls-1" d="M230.95,122.12v12.86c0,1.87-1.52,3.39-3.4,3.39h-47.37c-1.35,0-2.43-1.09-2.43-2.43v-10.65c0-3.79,3.07-6.87,6.87-6.87h42.64c2.05,0,3.7,1.65,3.7,3.7Z"/>
  <path class="cls-1" d="M288,122.12v12.86c0,1.87-1.52,3.39-3.4,3.39h-47.37c-1.35,0-2.45-1.09-2.45-2.43v-10.65c0-3.79,3.08-6.87,6.88-6.87h42.64c2.04,0,3.7,1.65,3.7,3.7Z"/>
  <path class="cls-1" d="M340.18,118.42v19.95h-45.89c-1.36,0-2.45-1.09-2.45-2.43v-10.65c0-3.79,3.08-6.87,6.87-6.87h41.47Z"/>
  <path class="cls-1" d="M211.58,145.76v12.86c0,1.87-1.52,3.39-3.39,3.39h-47.38c-1.35,0-2.43-1.09-2.43-2.43v-10.64c0-3.8,3.08-6.88,6.87-6.88h42.64c2.05,0,3.7,1.66,3.7,3.7Z"/>
  <path class="cls-1" d="M268.64,145.76v12.86c0,1.87-1.52,3.39-3.4,3.39h-47.37c-1.35,0-2.43-1.09-2.43-2.43v-10.64c0-3.8,3.08-6.88,6.87-6.88h42.64c2.05,0,3.7,1.66,3.7,3.7Z"/>
  <path class="cls-1" d="M325.69,145.76v12.86c0,1.87-1.52,3.39-3.4,3.39h-47.37c-1.35,0-2.45-1.09-2.45-2.43v-10.64c0-3.8,3.08-6.88,6.88-6.88h42.64c2.04,0,3.7,1.66,3.7,3.7Z"/>
  <path class="cls-1" d="M340.18,142.07v19.95h-8.2c-1.36,0-2.45-1.09-2.45-2.43v-10.64c0-3.8,3.08-6.88,6.88-6.88h3.77Z"/>
  <path class="cls-1" d="M173.89,169.41v12.86c0,1.87-1.52,3.39-3.39,3.39h-12.12v-19.95h11.82c2.05,0,3.7,1.66,3.7,3.7Z"/>
  <path class="cls-1" d="M230.95,169.41v12.86c0,1.87-1.52,3.39-3.4,3.39h-47.37c-1.35,0-2.43-1.09-2.43-2.43v-10.64c0-3.8,3.07-6.88,6.87-6.88h42.64c2.05,0,3.7,1.66,3.7,3.7Z"/>
  <path class="cls-1" d="M288,169.41v12.86c0,1.87-1.52,3.39-3.4,3.39h-47.37c-1.35,0-2.45-1.09-2.45-2.43v-10.64c0-3.8,3.08-6.88,6.88-6.88h42.64c2.04,0,3.7,1.66,3.7,3.7Z"/>
  <path class="cls-1" d="M340.18,165.71v19.95h-45.89c-1.36,0-2.45-1.09-2.45-2.43v-10.64c0-3.8,3.08-6.88,6.87-6.88h41.47Z"/>
  <path class="cls-1" d="M211.58,193.06v12.86c0,1.87-1.52,3.4-3.39,3.4h-47.38c-1.35,0-2.43-1.1-2.43-2.45v-10.64c0-3.8,3.08-6.88,6.87-6.88h42.64c2.05,0,3.7,1.66,3.7,3.7Z"/>
  <path class="cls-1" d="M268.64,193.06v12.86c0,1.87-1.52,3.4-3.4,3.4h-47.37c-1.35,0-2.43-1.1-2.43-2.45v-10.64c0-3.8,3.08-6.88,6.87-6.88h42.64c2.05,0,3.7,1.66,3.7,3.7Z"/>
  <path class="cls-1" d="M325.69,193.06v12.86c0,1.87-1.52,3.4-3.4,3.4h-47.37c-1.35,0-2.45-1.1-2.45-2.45v-10.64c0-3.8,3.08-6.88,6.88-6.88h42.64c2.04,0,3.7,1.66,3.7,3.7Z"/>
  <path class="cls-1" d="M340.18,189.36v19.96h-8.2c-1.36,0-2.45-1.1-2.45-2.45v-10.64c0-3.8,3.08-6.88,6.88-6.88h3.77Z"/>
  <path class="cls-1" d="M184.98,216.71v12.86c0,1.88-1.52,3.4-3.39,3.4h-23.2v-19.96h22.91c2.04,0,3.69,1.66,3.69,3.7Z"/>
  <path class="cls-1" d="M242.03,216.71v12.86c0,1.88-1.52,3.4-3.39,3.4h-47.38c-1.35,0-2.43-1.1-2.43-2.45v-10.64c0-3.8,3.08-6.88,6.87-6.88h42.64c2.05,0,3.7,1.66,3.7,3.7Z"/>
  <path class="cls-1" d="M299.08,216.71v12.86c0,1.88-1.52,3.4-3.39,3.4h-47.38c-1.35,0-2.43-1.1-2.43-2.45v-10.64c0-3.8,3.08-6.88,6.87-6.88h42.64c2.05,0,3.7,1.66,3.7,3.7Z"/>
  <path class="cls-1" d="M340.18,213.01v19.96h-34.81c-1.35,0-2.45-1.1-2.45-2.45v-10.64c0-3.8,3.08-6.88,6.88-6.88h30.38Z"/>
</svg>