<?xml version="1.0" encoding="UTF-8"?>
<svg id="Calque_6" data-name="Calque 6" xmlns="http://www.w3.org/2000/svg" viewBox="0 0 257.17 432.8">
  <defs>
    <style>
      .cls-1, .cls-2 {
        fill: #cfbebd;
      }

      .cls-2 {
        opacity: .22;
      }

      .cls-3 {
        fill: #fffaf5;
      }

      .cls-4 {
        fill: #513945;
      }
    </style>
  </defs>
  <g>
    <path class="cls-4" d="M199.38,249v161.32h-28.08v-112.13c0-1.86-1.51-3.36-3.36-3.36H88.35c-1.86,0-3.36,1.51-3.36,3.36v112.13h-27.19V249H199.38Z"/>
    <g>
      <path class="cls-2" d="M145.87,281.7v6.43c0,.94-.59,1.7-1.31,1.7h-18.29c-.52,0-.94-.54-.94-1.22v-5.32c0-1.9,1.19-3.43,2.65-3.43h16.46c.79,0,1.43,.82,1.43,1.85Z"/>
      <path class="cls-2" d="M156.14,267.96v6.43c0,.94-.59,1.7-1.31,1.7h-18.29c-.52,0-.94-.54-.94-1.22v-5.32c0-1.9,1.19-3.43,2.65-3.43h16.46c.79,0,1.43,.82,1.43,1.85Z"/>
      <path class="cls-2" d="M78.99,262.97v6.43c0,.94-.59,1.7-1.31,1.7h-18.29c-.52,0-.94-.54-.94-1.22v-5.32c0-1.9,1.19-3.43,2.65-3.43h16.46c.79,0,1.43,.82,1.43,1.85Z"/>
      <path class="cls-2" d="M89.26,274.5v6.43c0,.94-.59,1.7-1.31,1.7h-18.29c-.52,0-.94-.54-.94-1.22v-5.32c0-1.9,1.19-3.43,2.65-3.43h16.46c.79,0,1.43,.82,1.43,1.85Z"/>
      <path class="cls-2" d="M76.33,286.69v6.44c0,.94-.59,1.7-1.31,1.7h-17.24v-9.88c.21-.07,.43-.11,.66-.11h16.46c.78,0,1.43,.83,1.43,1.85Z"/>
      <path class="cls-2" d="M84.98,304.36v9.97h-9.34c-.51,0-.94-.54-.94-1.22v-5.32c0-1.9,1.18-3.43,2.64-3.43h7.63Z"/>
      <path class="cls-2" d="M78.99,321.54v6.43c0,.94-.59,1.7-1.31,1.7h-18.29c-.52,0-.94-.54-.94-1.22v-5.32c0-1.9,1.19-3.43,2.65-3.43h16.46c.79,0,1.43,.82,1.43,1.85Z"/>
      <path class="cls-2" d="M198.7,340.6v6.43c0,.94-.59,1.7-1.31,1.7h-18.29c-.52,0-.94-.54-.94-1.22v-5.32c0-1.9,1.19-3.43,2.65-3.43h16.46c.79,0,1.43,.82,1.43,1.85Z"/>
      <path class="cls-2" d="M182.74,356.12v6.44c0,.94-.58,1.7-1.31,1.7h-10.13v-9.98h10.02c.78,0,1.43,.83,1.43,1.85Z"/>
      <path class="cls-2" d="M196.86,281.7v6.43c0,.94-.59,1.7-1.31,1.7h-18.29c-.52,0-.94-.54-.94-1.22v-5.32c0-1.9,1.19-3.43,2.65-3.43h16.46c.79,0,1.43,.82,1.43,1.85Z"/>
    </g>
  </g>
  <g>
    <rect class="cls-3" x="17.88" y="253.37" width="46.71" height="151.64"/>
    <rect class="cls-3" x="188.44" y="253.37" width="46.7" height="151.64"/>
    <path class="cls-3" d="M257.17,226.76v12.86c0,1.23-.99,2.21-2.22,2.21H2.21c-1.23,0-2.21-.98-2.21-2.21v-12.86c0-1.23,.98-2.21,2.21-2.21H254.95c1.23,0,2.22,.98,2.22,2.21Z"/>
    <path class="cls-3" d="M248.75,242.58v12.86c0,1.22-.99,2.21-2.22,2.21H10.64c-1.23,0-2.21-.99-2.21-2.21v-12.86c0-.27,.05-.51,.14-.75H248.61c.09,.23,.14,.48,.14,.75Z"/>
    <path class="cls-1" d="M248.75,242.58v1.92H8.42v-1.92c0-.27,.05-.51,.14-.75H248.61c.09,.23,.14,.48,.14,.75Z"/>
    <rect class="cls-1" x="17.88" y="257.65" width="46.71" height="2.67"/>
    <rect class="cls-1" x="188.44" y="257.65" width="46.7" height="2.67"/>
    <path class="cls-3" d="M257.17,430.59v-12.86c0-1.23-.99-2.21-2.22-2.21H2.21c-1.23,0-2.21,.98-2.21,2.21v12.86c0,1.23,.98,2.21,2.21,2.21H254.95c1.23,0,2.22-.98,2.22-2.21Z"/>
    <path class="cls-3" d="M248.75,414.77v-12.86c0-1.22-.99-2.21-2.22-2.21H10.64c-1.23,0-2.21,.99-2.21,2.21v12.86c0,.27,.05,.51,.14,.75H248.61c.09-.23,.14-.48,.14-.75Z"/>
    <path class="cls-1" d="M248.75,414.77v-1.92H8.42v1.92c0,.27,.05,.51,.14,.75H248.61c.09-.23,.14-.48,.14-.75Z"/>
    <rect class="cls-1" x="17.88" y="397.03" width="46.71" height="2.67"/>
    <rect class="cls-1" x="188.44" y="397.03" width="46.7" height="2.67"/>
    <rect class="cls-1" x="31.48" y="276.09" width=".59" height="88.17"/>
    <rect class="cls-1" x="48.62" y="294.67" width=".59" height="88.17"/>
    <rect class="cls-1" x="204.11" y="265.26" width=".59" height="88.17"/>
    <rect class="cls-1" x="221.55" y="289.83" width=".59" height="88.17"/>
  </g>
</svg>