<?xml version="1.0" encoding="UTF-8"?>
<svg id="Calque_4" data-name="Calque 4" xmlns="http://www.w3.org/2000/svg" xmlns:xlink="http://www.w3.org/1999/xlink" viewBox="0 0 152.72 47.02">
  <defs>
    <style>
      .cls-1 {
        fill: #f6fbff;
      }

      .cls-2 {
        fill: #ddecff;
      }

      .cls-3 {
        fill: #d5effe;
      }

      .cls-4 {
        fill: none;
      }
    </style>
    <clipPath id="clippath">
      <rect class="cls-4" x="-787.75" y="-57.98" width="750" height="500"/>
    </clipPath>
  </defs>
  <path class="cls-1" d="M137.03,42.64H20.22c.44-12.59,9.71-22.63,21.09-22.63h0C45.99,8.23,56.53,0,68.81,0c14.76,0,27.02,11.88,29.57,27.54,.53-.07,1.07-.11,1.62-.11,4.76,0,8.98,2.57,11.61,6.54,.9-.25,1.85-.39,2.82-.39,3.44,0,6.53,1.66,8.67,4.29,1.43-.84,3.07-1.31,4.79-1.31,3.95,0,7.38,2.46,9.13,6.08Z"/>
  <path class="cls-3" d="M123.1,37.88c-2.14-2.63-5.23-4.29-8.67-4.29-.91,0-1.78,.13-2.63,.35,1.29,2.03,2.66,3.96,4.79,3.96,4.47,.67,8.65-.02,12.71-1.22-.46-.07-.93-.11-1.4-.11-1.73,0-3.36,.48-4.79,1.31Z"/>
  <path class="cls-2" d="M0,44.36c20.76,.86,41.34-.02,62.07,.94,5.22,.24,10.44,.48,15.66,.72,5.67,.26,11.35,.52,17.02,.7,16.81,.52,33.63,.28,50.44,.05,2.66-.04,5.58-.19,7.52-2.22-13.91-3.98-27.34-1.73-41.39-2.07l-43.62-1.07c-6.11-.15-12.24-.3-18.31-1.07-6.15-.78-12.27-2.2-18.45-1.98-2.83,.1-5.55,.64-8.32,1.22-2.65,.56-5.33,.23-8.06,.53-4.65,.51-10.26,2.22-14.55,4.26Z"/>
</svg>