<?xml version="1.0" encoding="UTF-8"?>
<svg id="Calque_6" data-name="Calque 6" xmlns="http://www.w3.org/2000/svg" viewBox="0 0 502.7 451.82">
  <defs>
    <style>
      .cls-1 {
        fill: #fffb00;
        opacity: .35;
      }

      .cls-2 {
        fill: #cd5e00;
      }
    </style>
  </defs>
  <path class="cls-2" d="M239.1,400.43c-22.61-12.42-11.82-39.91-4.87-41.38-1.18,11.38,1.77,12.42,4.14,13.6,9.31-7.98-2.81-21.43,.74-28.08,3.55-6.65,13.31-10.64,13.31-10.64,0,0-4.88,8.72,3.02,13.3,4.79,2.78,12.35,8.13,5.78,22.95,7.31-4.62,5.53-13.27,5.53-13.27,0,0,11.04,7.16,10.45,15.88-.59,8.72-5.29,29.86-21.76,29.86-12.94,0-16.33-2.22-16.33-2.22Z"/>
  <path class="cls-1" d="M244.32,399.91c-12.97-6.21-6.78-19.95-2.8-20.69-.68,5.69,1.02,6.21,2.37,6.8,5.34-3.99-1.61-10.72,.42-14.04,2.04-3.33,7.63-5.32,7.63-5.32,0,0-2.8,4.36,1.73,6.65,2.75,1.39,7.09,4.06,3.32,11.48,4.19-2.31,3.17-6.63,3.17-6.63,0,0,6.33,3.58,6,7.94-.34,4.36-3.03,14.93-12.49,14.93-7.43,0-9.37-1.11-9.37-1.11Z"/>
</svg>