<?xml version="1.0" encoding="UTF-8"?>
<svg id="Calque_6" data-name="Calque 6" xmlns="http://www.w3.org/2000/svg" viewBox="0 0 257.17 432.8">
  <defs>
    <style>
      .cls-1 {
        fill: #cd5e00;
      }
    </style>
  </defs>
  <path class="cls-1" d="M116.34,400.43c-22.61-12.42-11.82-39.91-4.87-41.38-1.18,11.38,1.77,12.42,4.14,13.6,9.31-7.98-2.81-21.43,.74-28.08,3.55-6.65,13.31-10.64,13.31-10.64,0,0-4.88,8.72,3.02,13.3,4.79,2.78,12.35,8.13,5.78,22.95,7.31-4.62,5.53-13.27,5.53-13.27,0,0,11.04,7.16,10.45,15.88-.59,8.72-5.29,29.86-21.76,29.86-12.94,0-16.33-2.22-16.33-2.22Z"/>
</svg>