<?xml version="1.0" encoding="UTF-8"?>
<svg id="Calque_6" data-name="Calque 6" xmlns="http://www.w3.org/2000/svg" viewBox="0 0 502.7 451.82">
  <defs>
    <style>
      .cls-1 {
        fill: #fffb00;
        opacity: .35;
      }
    </style>
  </defs>
  <path class="cls-1" d="M244.32,399.91c-12.97-6.21-6.78-19.95-2.8-20.69-.68,5.69,1.02,6.21,2.37,6.8,5.34-3.99-1.61-10.72,.42-14.04,2.04-3.33,7.63-5.32,7.63-5.32,0,0-2.8,4.36,1.73,6.65,2.75,1.39,7.09,4.06,3.32,11.48,4.19-2.31,3.17-6.63,3.17-6.63,0,0,6.33,3.58,6,7.94-.34,4.36-3.03,14.93-12.49,14.93-7.43,0-9.37-1.11-9.37-1.11Z"/>
</svg>