<?xml version="1.0" encoding="UTF-8"?>
<svg xmlns="http://www.w3.org/2000/svg" xmlns:xlink="http://www.w3.org/1999/xlink" viewBox="0 0 104 104" width="104px" height="104px">
<g id="surface62535336">
<path style=" stroke:none;fill-rule:nonzero;fill:rgb(100%,100%,100%);fill-opacity:1;" d="M 86.25 0.6875 L 41.8125 14.28125 C 36.421875 15.8125 32.0625 21.421875 32.0625 26.8125 L 32.0625 73.046875 C 32.0625 73.046875 32.0625 73.671875 32.0625 73.6875 C 32.0625 73.6875 28.84375 71.515625 21.671875 72.53125 C 11.140625 74.03125 2.59375 82.109375 2.59375 90.59375 C 2.59375 99.078125 11.140625 104.265625 21.671875 102.765625 C 32.21875 101.28125 39.9375 93.453125 39.9375 84.96875 C 39.9375 84.96875 39.9375 48.703125 39.9375 44.9375 C 39.9375 41.1875 44.453125 39.5625 44.453125 39.5625 L 83.75 27.25 C 83.75 27.25 88.09375 25.796875 88.09375 29.8125 C 88.09375 33.84375 88.09375 61.9375 88.09375 61.9375 C 88.09375 61.9375 88.09375 61.953125 88.09375 61.96875 C 88.09375 61.96875 84.09375 59.65625 76.921875 60.53125 C 66.390625 61.8125 57.84375 69.71875 57.84375 78.203125 C 57.84375 86.6875 66.390625 92.046875 76.921875 90.765625 C 87.453125 89.5 96 81.578125 96 73.09375 L 96 7.640625 C 96 2.265625 91.625 -0.859375 86.25 0.6875 Z M 86.25 0.6875 "/>
</g>
</svg>
