<?xml version="1.0" encoding="UTF-8"?>
<svg id="Calque_5" data-name="Calque 5" xmlns="http://www.w3.org/2000/svg" viewBox="0 0 400 388.82">
  <defs>
    <style>
      .cls-1 {
        fill: #dd866a;
      }

      .cls-2 {
        fill: none;
        stroke: #000;
        stroke-miterlimit: 10;
      }

      .cls-3 {
        fill: #8a2431;
      }

      .cls-4 {
        fill: #f5f3f4;
      }

      .cls-5 {
        fill: #edece8;
      }

      .cls-6 {
        fill: #ae2d3f;
      }

      .cls-7 {
        fill: #252525;
      }
    </style>
  </defs>
  <ellipse class="cls-2" cx="183.58" cy="80.04" rx="3.39" ry="7.67"/>
  <path class="cls-1" d="M181.2,69.05c-.45,4.5,2.38,18.66,4.32,20.26,2.64,2.17-3.2,10.2-3.2,10.2l-13.7,7.53-21.65,4.35-14.05-8.03-9.37-17.24,16.35-13.75,21.93-5.14,19.37,1.82Z"/>
  <path class="cls-5" d="M148.77,79.67c7.89,4.88,18.18,14.81,16.98,23.68-1.2,8.87,11.12,35.58,24.7,38.86,13.58,3.28,27.35,8.84,26.51,3.04-.84-5.8-20.85-32.13-20.85-36.6s-.56-16.82-7.89-20.24c-7.33-3.42-20.85-5.65-20.85-5.65-.56-2.23,17.51-7.58,15.52-16.51s-16.64-10.4-16.64-10.4l-17.47,23.82Z"/>
  <path class="cls-6" d="M175.28,41.1c-1.38-14.32-20.99-28.34-42.01-29.01-11.43-.36-42.16,15.17-45.86,26.33-3.68,11.09,2.02,64.93-.86,76.76,15.3-2.45,16.58-13.31,20.26-24.49,3.68-11.18,4.48-21.48,4.48-21.48l42.82-2.68,21.17-25.44Z"/>
  <path class="cls-4" d="M189.59,57.72c0,3.93-3.38,7.13-7.57,7.24-1.06,1.49-2.45,2.72-4.08,3.57,.14,.42,.24,.85,.24,1.3,0,2.38-2.07,4.29-4.63,4.29-.39,0-.76-.05-1.12-.14-.63,1.83-2.45,3.15-4.62,3.15-1.02,0-1.95-.28-2.73-.78-.4,2.43-2.64,4.29-5.37,4.29-1.14,0-2.2-.33-3.07-.89-.81,2.01-2.88,3.44-5.33,3.44-1.15,0-2.23-.32-3.12-.87-.16,.4-.37,.79-.68,1.13-1.45,1.66-4.09,1.92-5.88,.57-.12-.1-.23-.21-.34-.33,0,.06,0,.12,0,.19,0,3.59-2.57,6.51-5.79,6.72-.89,2.57-3.48,4.43-6.54,4.43-1.51,0-2.9-.46-4.03-1.23-1.61,1.6-4.07,2.63-6.82,2.63-3.27,0-6.11-1.45-7.63-3.59-2.69-.43-4.75-2.61-4.75-5.24,0-.95,.28-1.85,.75-2.62-3.67-1.63-6.21-5.11-6.21-9.13,0-5.6,4.89-10.14,10.91-10.14,1.12,0,2.21,.16,3.22,.45,.91-3.37,4.19-5.87,8.11-5.87,1.45,0,2.82,.34,4.01,.95,1.38-2.17,3.92-3.63,6.83-3.63,1.26,0,2.45,.28,3.51,.77,.74-3.86,4.36-6.79,8.73-6.79,2,0,3.83,.62,5.32,1.65,.2-4.14,3.88-7.45,8.4-7.45,.36,0,.71,.03,1.06,.07,.54-3.78,3.36-6.66,6.75-6.66,1.72,0,3.3,.75,4.5,1.99,1.06-2.67,3.59-4.55,6.55-4.55,3.91,0,7.08,3.29,7.08,7.37,0,1.19-.29,2.32-.77,3.32,1.22,.84,1.97,1.93,1.97,3.14,0,.44-.1,.87-.29,1.26,2.06,1.31,3.41,3.51,3.41,5.99Z"/>
  <path class="cls-3" d="M36.88,162.05c-3.02,8.61-17.43,95.63-8.36,109.23s46.36,36.26,46.36,36.26l28.72-53.94-18.65-63.91-13.61-27.65H36.88Z"/>
  <path class="cls-6" d="M67.09,137.95s-28.35,13.84-30.75,25.89c-2.4,12.05,27.87,87.92,30.75,90.15,2.88,2.23,8.17,2.23,8.17,2.23v20.53s-6.73,1.79-6.73,5.8-2.88,59.36-.96,63.82c1.92,4.46,31.71,17.85,31.71,17.85h46.6l34.3,2.68s38.73,11.16,56.51-8.93c17.78-20.08-3.36-84.35-12.49-91.04-9.13-6.69-44.02-12.05-44.02-12.05,0,0-1.19-76.31,9.4-86.13s20.2-20.53,20.2-20.53l-63.42-17.94h-58.62l-20.66,7.68Z"/>
  <path class="cls-7" d="M218.92,274.29c-62.38-.48-113.35-.57-149.29,5.13,1.27-7.92,.33-14.72-.73-24.21,29.9-6.2,83.05-6.65,146.78-6.37l3.24,25.45Z"/>
  <path class="cls-3" d="M189.83,152.9c-9.26,8.25-17.39,67.04-14.54,78.79,2.84,11.76,6.75,34.29,11.15,38.7,4.4,4.41,108.92,11.76,115.76,0,6.84-11.76,1.47-34.29-4.4-34.29s-50.8-8.82-55.68-6.37c-4.88,2.45-2.93-57.81-23.93-70.55-21-12.74-28.35-6.29-28.35-6.29Z"/>
  <path class="cls-7" d="M318.33,263.04c.24-.12,.48-.27,.7-.42,.24-.12,.48-.27,.7-.42,.24-.12,.48-.27,.7-.42,.24-.12,.48-.27,.7-.42,.24-.12,.48-.27,.7-.42,.24-.12,.48-.27,.7-.42,.24-.12,.48-.27,.7-.42,.24-.12,.48-.27,.7-.42,.24-.12,.48-.27,.7-.42,.24-.12,.48-.27,.7-.42,.24-.12,.48-.27,.7-.42,.24-.12,.48-.27,.7-.42,.24-.13,.48-.27,.7-.42,.24-.13,.48-.27,.7-.42,.24-.13,.48-.27,.7-.42,.24-.13,.48-.27,.7-.42,.24-.13,.48-.27,.7-.42,.24-.13,.47-.27,.7-.42,.24-.13,.48-.27,.7-.42,.24-.13,.48-.27,.7-.42,.24-.13,.48-.27,.7-.42,.24-.13,.47-.27,.7-.42,.24-.13,.48-.27,.7-.42,.24-.13,.47-.27,.7-.42,.24-.13,.48-.27,.7-.42,.24-.13,.47-.27,.7-.42,.24-.13,.48-.27,.7-.42,.24-.13,.47-.27,.7-.42,.24-.13,.47-.27,.7-.42,.24-.13,.48-.27,.7-.42,.24-.13,.47-.27,.7-.42,.05-.03,.11-.06,.16-.09,.1,0,.21,0,.32-.02,.14,0,.28,0,.42-.03,.14,0,.28,0,.42-.03,.14,0,.28,0,.42-.03,.14-.01,.28,0,.42-.03,.14-.01,.28,0,.42-.03,.14-.01,.28,0,.42-.03,.14-.01,.28,0,.42-.03,.14-.01,.28,0,.42-.03,.14-.01,.28,0,.42-.03,.14-.01,.28,0,.42-.03,.14-.01,.28,0,.42-.03,.14-.01,.28,0,.42-.03,.14-.01,.28,0,.42-.03,.14-.01,.28,0,.42-.03,.14-.01,.28,0,.42-.03,.14-.01,.28,0,.42-.03,.14-.01,.28,0,.42-.03,.14-.01,.28,0,.42-.03,.14-.01,.28,0,.42-.03,.14-.01,.28,0,.42-.03,.14-.01,.28,0,.42-.03,8.25-.69,14.75-8.22,14.75-17.42,0-9.66-7.15-17.49-15.98-17.49-7.26,0-13.39,5.31-15.33,12.57-.04,.14-.07,.28-.11,.42-.04,.14-.07,.28-.11,.41-.04,.14-.07,.28-.11,.42-.04,.14-.07,.28-.11,.41-.04,.14-.07,.28-.11,.41-.04,.14-.07,.28-.11,.42-.04,.14-.07,.28-.11,.41-.04,.14-.07,.28-.11,.41-.04,.14-.07,.28-.11,.41-.04,.14-.07,.28-.11,.41-.04,.14-.07,.28-.11,.41-.04,.14-.07,.28-.11,.41-.04,.14-.07,.28-.11,.41-.04,.14-.07,.28-.11,.41-.04,.14-.07,.28-.11,.41-.04,.14-.07,.27-.11,.41-.04,.14-.07,.27-.11,.41-.04,.14-.07,.28-.11,.41,0,.03-.02,.06-.03,.09,0,0,0,0,0,0-.22,.17-.43,.35-.64,.54-.22,.17-.43,.35-.64,.54-.22,.17-.43,.35-.64,.54-.22,.17-.43,.35-.64,.54-.22,.17-.43,.35-.64,.54-.22,.17-.43,.35-.64,.54-.22,.17-.43,.35-.64,.54-.22,.17-.44,.35-.64,.54-.22,.17-.43,.35-.64,.54-.22,.17-.43,.35-.64,.54-.22,.17-.43,.35-.64,.54-.22,.17-.43,.35-.64,.54-.22,.17-.43,.35-.64,.54-.22,.17-.43,.35-.64,.54-.22,.17-.43,.35-.64,.54-.22,.17-.43,.35-.64,.54-.22,.17-.43,.35-.64,.54-.22,.17-.43,.35-.64,.54-.22,.17-.43,.35-.64,.54-.22,.17-.43,.35-.64,.54-.22,.17-.43,.35-.64,.54-.22,.17-.43,.35-.64,.54-.22,.17-.43,.35-.64,.54-.22,.17-.43,.35-.64,.54-.22,.17-.43,.35-.64,.54-.22,.17-.43,.35-.64,.54-.22,.17-.43,.35-.64,.54-.22,.17-.43,.35-.64,.54-.22,.17-.43,.35-.64,.54-.22,.17-.43,.35-.64,.54-.22,.17-.43,.35-.64,.54-.22,.17-.44,.35-.64,.54-1.69,1.26-2.81,3.45-2.81,5.94,0,3.9,2.74,7.07,6.11,7.07,1.14,0,2.21-.37,3.13-1,.24-.12,.48-.27,.7-.42,.24-.12,.48-.27,.7-.42Z"/>
  <ellipse class="cls-6" cx="322.01" cy="255.36" rx="26.18" ry="18.35" transform="translate(-31.2 45.26) rotate(-7.67)"/>
  <ellipse class="cls-6" cx="319.11" cy="239.65" rx="12.36" ry="6.44" transform="translate(-50.43 88.98) rotate(-14.72)"/>
  <path class="cls-4" d="M98.8,91.4c-4.49,.8-7.23,3.16-6.97,8.09-2.96,1.45-4.2,3.79-3.12,7.33-3.5-1.22-6.16-.72-7.21,3.03-4.04-.83-6.55,.92-7.21,5.81-2.48,1.17-2.62,3.06-.96,5.49-3.13-.03-5.4,1.38-6.73,4.37-2.89-.76-5.47-.34-7.21,3.28-3.58-1.19-6.5,.06-8.65,3.67-2.65,1.1-3.37,2.99-2.16,5.68-3.2,2.89-2.57,6.05,0,9.35-.72,3.05,.48,4.88,4.32,5.05,2.74,3.49,5.69,4.27,8.89,1.77-.35,2.31,.59,3.53,2.64,3.79,2.13,7.81,7.09,6.75,12.49,4.3,3.64,2.89,7.56,4.61,12.97,0,3.86,3.07,7.88,4.55,12.49,0,2.15,2.19,4.31,2.7,6.49,0,7.4,2.47,10.08-.57,11.53-5.05,4.09,2.47,7.88,2.2,11.29-1.77,.2,2.7,1.27,4.15,3.6,3.79,5.19,3.55,9.92,2.88,14.17-2.27,2.83,5.19,6.97,6.64,12.97,2.78,5.61,3.6,9.3,1.19,12.25-3.54,3.36,5.63,8.46,7.39,16.1,3.54,2.26,4.21,5.72,5.22,10.57,2.53,4.44,2.53,8.28,2.52,11.05-2.02-.15,3.74,1.64,4.99,4.56,4.8,2.4,3.21,4.72,3.1,6.97,0,2.58-1.32,2.87-3.96,1.44-7.58-1.49-4.84-5.28-5.91-9.61-6.06-1.64-4.28-5.34-6.27-10.33-6.82,.48-2.96-.03-5.28-2.88-6.06-1.66-3.76-4.68-5.05-9.13-3.79,1.01-3.91,.55-7.58-2.4-10.87-1.08-3.3-3.13-4.49-6.49-2.85-2.35-5.96-6.57-8.47-12.25-8.27,.77-1.85,.52-3.43-1.44-4.55-2.41-3.92-5.56-4.92-9.37-3.28-2.53-7.97-9.14-11.95-19.7-11.76-3.06-1.09-4.99,.11-6.01,3.17-1.11-4.4-3.81-5.98-7.93-5.05-2.4-3.06-5.17-4.1-8.89,0-4.31-1.9-8.1-2.26-10.33,1.89-.33-3.57-2.77-4.21-6.25-3.4-1.49-.49-2.62,.26-3.6,1.52Z"/>
  <path class="cls-4" d="M274.92,229.96c.66,2.48,3.11,4.36,8.66,5.21-2.81,2.46-2.68,4.98,0,7.55-4.57,2.98-4.43,7.45-2.47,12.49-4.47,2.86-5.08,5.73-1.85,8.59-2.66,1.96-4.22,3.97,0,6.25-4.1,2.77-3.87,5.73,0,8.85,2.27,.83,3.45,.56,4.33,0,4.28,.74,7.31,.66,9.48,0,5.72-.22,9.52-1.29,9.89-3.9,5.81,.12,8-1.84,8.66-4.68,3.84-2.94,2.5-5.66,0-8.33,2.82-2.39,2.4-4.93,0-7.55,2.1-2.78,3.56-5.56,2.47-8.33,2.59-1.49,1.81-3.64,0-5.99,.51-2.08-.39-3.98-4.53-5.47,.9-1.88-1.44-3.04-6.18-3.64-.1-1.77-1.51-2.44-5.36-1.04-4.52-1.19-8.67-.95-12.37,1.04-2.94-1.89-6.55-2.15-10.72-1.04Z"/>
  <path class="cls-4" d="M62.29,342.79c-5.86,1.98-8.32,5.26-6.25,10.26-3.5,4.82-4.19,9.35,0,13.39-3.15,4.52-1.27,7,3.12,8.48-5.93,3.81-5.38,7.3-3.12,10.71-.73,3.87-.24,6.73,3.12,7.14-1.1,5.23,1.1,8.41,5.42,10.26H240.06c4.96-4.04,7.03-8.9,5.77-14.73,.44-4.44-.99-8.19-5.77-10.71,3.94-4.32,3.43-8.63,0-12.94,4.07-3.91,5.65-8.29,3.53-13.39-.44-6.61-2.27-12.07-10.74-12.05-11.26-6.03-20.2-3.56-27.87,3.57-6.27-5.9-14.88-8.56-27.39-5.8-7.25-1.8-10.83,.67-12.49,5.36-6.79-3.68-13.51-4.19-20.17-1.34-11.73-5.29-21.3-5.35-28.84-.45-6.58-1.21-10.6-.04-10.09,5.36-5.83-4.59-12.41-5.98-19.88-3.57-6.96-6.56-14.68-7.93-23.84,.45Z"/>
</svg>