<?xml version="1.0" encoding="UTF-8"?>
<svg id="Calque_6" data-name="Calque 6" xmlns="http://www.w3.org/2000/svg" viewBox="0 0 502.7 451.82">
  <defs>
    <style>
      .cls-1 {
        fill: #3c2a1c;
      }

      .cls-2 {
        fill: #953141;
      }

      .cls-3 {
        fill: #f3f2f3;
      }

      .cls-4 {
        fill: #38261a;
      }

      .cls-5 {
        fill: #a6725f;
      }

      .cls-6 {
        fill: #d3bda6;
      }

      .cls-7 {
        fill: #772934;
      }

      .cls-8 {
        fill: #452e1d;
      }
    </style>
  </defs>
  <g id="reindeer">
    <g id="pâteAvant">
      <path class="cls-5" d="M159.23,458.14c0,2-1.77,3.63-3.94,3.63-.83,0-1.61-.24-2.24-.64-.72,.71-1.74,1.16-2.89,1.16-.82,0-1.58-.23-2.21-.62-.31,.07-.63,.1-.95,.1-2.18,0-3.94-1.63-3.94-3.63,0-.56,.14-1.09,.38-1.56,.16-.31,.25-.65,.29-1,.03-.26,.1-.51,.17-.76,2.26-7.49,1.16-16.08-1.97-25.31l12.18-.61,4.36,26.76c.04,.24,.12,.47,.25,.67,.34,.54,.53,1.15,.53,1.81h0Z"/>
    </g>
    <g id="pâteAvant-2">
      <path class="cls-5" d="M112.56,461.05c0,2.2,1.77,3.99,3.94,3.99,.83,0,1.61-.26,2.24-.71,.72,.78,1.74,1.27,2.89,1.27,.82,0,1.58-.25,2.21-.68,.31,.07,.63,.11,.95,.11,2.18,0,3.94-1.79,3.94-3.99,0-.61-.14-1.19-.38-1.71-.16-.34-.25-.72-.29-1.1-.03-.29-.1-.56-.17-.84-2.26-8.23-1.16-17.67,1.97-27.83l-12.18-.67-4.36,29.41c-.04,.26-.12,.51-.25,.74-.34,.59-.53,1.27-.53,1.99h0Z"/>
    </g>
    <g>
      <path class="cls-8" d="M174.51,465.47c.11,0,.2,0,.31,0,.28-.01,.56-.04,.83-.07,.04,0,.08,0,.11-.01,3.94-.7,6.84-5.18,6.57-10.42-.25-5.04-3.32-9.07-7.1-9.66-.47-.04-.94-.05-1.42-.02-.19,0-.37,.02-.56,.05-5.47,.56-9.61,5.19-9.34,10.58,.27,5.48,4.99,9.7,10.59,9.57h0Z"/>
      <path class="cls-4" d="M174.51,465.47c.15,0,.31,.01,.47,0,.22-.01,.45-.03,.67-.08,.04,0,.08,0,.11-.01,3.94-.7,6.84-5.18,6.57-10.42-.25-5.04-3.32-9.07-7.1-9.66-.41-.06-.84-.08-1.26-.06-.24,.01-.48,.04-.72,.09-3.98,.67-6.9,5.16-6.64,10.44,.27,5.38,3.75,9.62,7.89,9.72h0Z"/>
      <path class="cls-5" d="M168.26,449.3c-7.7-.49-15.57,.1-23.55,1.4l2.23,18.51,4.25,1.21c9.13-1.92,17.63-3.9,23.5-6.08l-6.44-15.05h0Z"/>
    </g>
    <g>
      <path class="cls-4" d="M96.95,463.46c-.15-.01-.31-.04-.47-.07-.22-.04-.44-.1-.65-.18-.04,0-.08-.02-.1-.03-3.8-1.28-6-6.13-4.97-11.28,.99-4.95,4.62-8.49,8.44-8.51,.42,0,.84,.04,1.26,.12,.24,.05,.47,.11,.7,.19,3.84,1.25,6.06,6.12,5.03,11.3-1.06,5.28-5.12,8.96-9.24,8.45h0Z"/>
      <path class="cls-8" d="M96.95,463.46c-.11-.01-.2-.04-.31-.05-.27-.06-.55-.12-.81-.2-.04,0-.08-.02-.1-.03-3.8-1.28-6-6.13-4.97-11.28,.99-4.95,4.62-8.49,8.44-8.51,.47,.03,.94,.09,1.41,.19,.19,.04,.37,.08,.54,.13,5.32,1.36,8.74,6.55,7.68,11.84-1.07,5.38-6.36,8.86-11.88,7.91h0Z"/>
      <path class="cls-5" d="M105.51,448.4c7.69,.65,15.38,2.39,23.08,4.85l-4.94,17.98-4.38,.57c-8.75-3.25-21.96-8.15-22.35-9.48-.52-1.77,1.34-2.86,1.63-2.65,.29-1.46,.86-2.67,2.04-3.32-.15-1.77,.77-2.98,2.36-3.83,.31-1.73,.41-3.29,2.55-4.13s0,0,0,0Z"/>
    </g>
    <path class="cls-7" d="M138.38,414.15l21.64-6.2c1.24,14.32,5.73,27.72,11.07,40.82,1.6,3.9-.06,8.36-3.7,9.93-1.99,.86-4.2,1.12-6.6,.89-1.96-.19-3.79-1.25-5.05-2.87-6.29-8.08-11.94-23.99-17.36-42.57h0Z"/>
    <ellipse class="cls-6" cx="136.01" cy="452.53" rx="13.03" ry="22.17"/>
    <path class="cls-5" d="M108.47,448.8c5.23-14.99,12.32-31.37,27.52-31.37s21.77,18.45,27.52,31.37c4.84,10.88-12.04,26.57-27.24,26.57s-32.67-12.64-27.81-26.57Z"/>
    <g id="têteFace">
      <path class="cls-5" d="M190.12,354.56c-6.07,.35-16.04,6.65-21.46,12.84-5.22-15.7-18.69-26.88-34.48-26.88s-28.79,10.8-34.2,26.07c-5.54-5.92-14.93-11.69-20.74-12.03-6.67-.38-12.38,4.44-11.62,9.1h0c.78,4.73,22.03,12.53,29.87,15.04-.07,1.04-.12,2.08-.12,3.14,0,16.11,8.2,30.06,20.17,36.88,4.99,2.85,10.64,4.46,16.63,4.46,6.37,0,12.36-1.82,17.59-5.02,0,0,.01,0,.02-.01,11.43-7.01,19.19-20.65,19.19-36.31h0c0-.96-.04-1.9-.1-2.84,6.87-2.12,30.04-10.4,30.85-15.36h0c.76-4.65-4.95-9.48-11.62-9.1Z"/>
      <g id="bonnet">
        <path class="cls-2" d="M109.99,340.44c5.79-7.12,13.3-5.67,14.78-5.78,1.48-.12,20.92,0,23.08,0s7.28,1.73,9.44,3.94c2.16,2.2,6.25,10.76,6.25,10.76l-12.84,5.32s-35.12,.23-36.03,0-8.52-2.89-8.52-2.89l-.8-2.66s1.93-5.32,4.66-8.68h0Z"/>
        <path class="cls-3" d="M110.21,350.56c3.84-3.54,6.64-2.63,9.04,0,2.7-2.78,5.44-3.24,8.26-.43,2.39-2.48,5.02-2.58,7.94,0,2.81-3.69,5.95-3.67,9.35-.51,2.59-2.36,4.43-1.31,6.21,0,2.13-3.58,4.84-4.35,8.33-1.28,4.65-2.46,7.4-.93,9.04,2.99,3.72,2.77,3.28,5.59-.94,8.46-1.87,5.51-4.79,6.32-8.88,1.97-2.77,3.81-5.77,3.56-8.96,0-1.93,2.91-4.68,3.17-8.17,.94-2.44,2.53-5.07,2.4-7.86,0-3.26,3.3-6.28,3.08-9.12,0-1.43,2.28-3.81,2.45-6.92,1.03-1.86,2.99-4.24,3.53-7.31,.77-4.8,2.63-7.63,1.25-9.12-2.82-5.43-2.82-4.56-5.74-.4-8.71,1.54-5.21,4.63-6.22,9.51-2.39h0Z"/>
        <path class="cls-3" d="M134.1,321.91c-1.11-.66-2.24-.39-3.39,.74-1.73,0-2.49,.86-2.8,2.09-1.55,.46-2.06,1.53-1.73,3.09-1.08,.92-1.21,2.1-.36,3.55-.76,1.5-.5,2.66,1.07,3.39,0,1.59,.71,2.53,2.32,2.65,.84,1.55,1.92,1.93,3.17,1.45,1.36,.83,2.52,.87,3.46,0,1.64,.65,2.8,.38,3.17-1.45,1.88-.03,2.62-.93,2.32-2.65,1.24-.77,1.84-1.81,1.07-3.39,.94-1.35,.93-2.55-.36-3.55,.06-1.86-.57-2.81-1.73-3.09,.22-1.22-.47-2.03-2.8-2.09-.28-1.28-1.48-1.44-3.39-.74h0Z"/>
      </g>
      <g id="bois">
        <path class="cls-1" d="M107.03,360.57c-.62,1.3-1.89,2.05-3.2,2.05-.53,0-1.07-.12-1.57-.38l-15.84-8.03-1.49-10.44-13.1-10.67c-1.15-.94-1.35-2.67-.43-3.86,.91-1.19,2.59-1.39,3.75-.45l8.65,7.04-2.72-18.92c-.16-.07-.33-.16-.49-.28l-9.9-7.29c-1.2-.89-1.48-2.6-.62-3.83s2.53-1.51,3.73-.64l6.19,4.57-.14-.99c-.28-2,1.06-3.86,3-4.16,1.94-.3,3.76,1.09,4.04,3.09l1.48,10.32,11.55-5.4c1.34-.63,2.92-.02,3.54,1.36s.02,3.01-1.32,3.64l-12.95,6.07,2.64,18.39,10.9-5.11c1.34-.63,2.92-.02,3.54,1.36s.02,3.01-1.32,3.64l-12.3,5.76,.28,1.92,12.49,6.32c1.76,.9,2.49,3.09,1.63,4.91h0Z"/>
        <path class="cls-1" d="M161.52,360.57c.62,1.3,1.89,2.05,3.2,2.05,.53,0,1.07-.12,1.57-.38l15.84-8.03,1.49-10.44,13.1-10.67c1.15-.94,1.35-2.67,.43-3.86-.91-1.19-2.59-1.39-3.75-.45l-8.65,7.04,2.72-18.92c.16-.07,.33-.16,.49-.28l9.89-7.29c1.2-.89,1.48-2.6,.62-3.83s-2.53-1.51-3.73-.64l-6.19,4.57,.14-.99c.28-2-1.06-3.86-3-4.16-1.94-.3-3.76,1.09-4.04,3.09l-1.48,10.32-11.55-5.4c-1.34-.63-2.92-.02-3.54,1.36s-.02,3.01,1.32,3.64l12.95,6.07-2.64,18.39-10.9-5.11c-1.34-.63-2.92-.02-3.54,1.36s-.02,3.01,1.32,3.64l12.3,5.76-.28,1.92-12.49,6.32c-1.76,.9-2.49,3.09-1.63,4.91h0Z"/>
      </g>
    </g>
    <path class="cls-2" d="M152.36,431.48h-34.56c-6.89,0-12.48-5.59-12.48-12.48v-8.8c0-2.04,1.66-3.69,3.69-3.69h52.13c2.04,0,3.69,1.66,3.69,3.69v8.8c0,6.89-5.59,12.48-12.48,12.48h0Z"/>
  </g>
</svg>