<?xml version="1.0" encoding="UTF-8"?>
<svg id="Calque_6" data-name="Calque 6" xmlns="http://www.w3.org/2000/svg" viewBox="0 0 502.7 451.82">
  <defs>
    <style>
      .cls-1 {
        fill: none;
        stroke: #000;
        stroke-miterlimit: 10;
      }

      .cls-2 {
        fill: #953141;
      }

      .cls-3 {
        fill: #234500;
      }

      .cls-4 {
        fill: #f3f2f3;
      }

      .cls-5 {
        fill: #215500;
      }

      .cls-6 {
        fill: #c7846b;
      }

      .cls-7 {
        fill: #ebeae6;
      }

      .cls-8 {
        fill: #2a2a2a;
      }

      .cls-9 {
        fill: #772934;
      }
    </style>
  </defs>
  <g>
    <ellipse class="cls-1" cx="366.65" cy="245.75" rx="5" ry="2.21" transform="translate(104.97 601.2) rotate(-87.47)"/>
    <path class="cls-6" d="M368.51,238.66l12.66-.63,14.13,3.98,10.25,9.42-6.6,10.96-9.38,4.82-13.97-3.45-8.7-5.3s-3.57-5.4-1.79-6.73c1.31-.99,3.56-10.12,3.4-13.07h0Z"/>
    <path class="cls-7" d="M389.32,246.51l-10.69-16.01s-9.58,.54-11.13,6.29c-1.55,5.76,10.06,9.76,9.63,11.2,0,0-8.87,1.06-13.74,3.08s-5.59,10.04-5.72,12.95-13.91,19.48-14.63,23.23c-.71,3.75,8.41,.53,17.35-1.22,8.94-1.75,17.73-18.78,17.2-24.59-.53-5.81,6.46-11.98,11.74-14.93h0Z"/>
    <path class="cls-2" d="M373.17,220.63l13.05,17.17,27.8,2.98s.22,6.73,2.3,14.11c2.07,7.39,2.6,14.49,12.49,16.53-1.54-7.79,3.72-42.68,1.65-50-2.09-7.37-21.65-18.37-29.1-18.46-13.71-.17-26.88,8.4-28.19,17.68h0Z"/>
    <path class="cls-4" d="M363.39,231.04c.07-1.61,1.01-3.01,2.39-3.8-.11-.26-.17-.54-.15-.83,.03-.79,.55-1.48,1.37-1.99-.28-.66-.44-1.41-.41-2.18,.12-2.66,2.28-4.71,4.82-4.6,1.93,.09,3.52,1.38,4.13,3.15,.82-.77,1.87-1.22,2.99-1.17,2.21,.1,3.96,2.05,4.2,4.53,.23-.02,.46-.03,.69-.02,2.94,.13,5.24,2.39,5.26,5.09,1-.63,2.21-.98,3.51-.92,2.85,.13,5.12,2.14,5.49,4.67,.7-.29,1.49-.44,2.31-.4,1.89,.08,3.51,1.11,4.34,2.56,.79-.36,1.69-.54,2.64-.5,2.55,.11,4.62,1.83,5.11,4.06,.67-.16,1.38-.23,2.11-.2,3.92,.17,6.97,3.27,6.81,6.92-.12,2.62-1.87,4.81-4.31,5.77,.28,.51,.44,1.11,.41,1.73-.08,1.71-1.48,3.07-3.24,3.28-1.05,1.35-2.94,2.21-5.07,2.12-1.79-.08-3.36-.82-4.36-1.91-.76,.47-1.68,.73-2.66,.69-1.99-.09-3.63-1.37-4.13-3.07-2.09-.23-3.68-2.2-3.58-4.54v-.12c-.07,.07-.14,.14-.23,.21-1.2,.83-2.92,.58-3.81-.54-.19-.23-.32-.49-.41-.76-.6,.33-1.31,.51-2.06,.48-1.6-.07-2.9-1.06-3.37-2.39-.58,.34-1.28,.52-2.02,.49-1.78-.08-3.18-1.35-3.37-2.95-.52,.3-1.14,.46-1.8,.43-1.41-.06-2.56-.97-2.92-2.18-.24,.05-.48,.07-.73,.06-1.67-.07-2.96-1.38-2.89-2.93,.01-.29,.09-.57,.19-.84-1.04-.6-1.91-1.44-2.55-2.44-2.72-.19-4.83-2.37-4.72-4.93h.01Z"/>
    <path class="cls-9" d="M459.81,303.36l-22.44-.99-9.66,17.61-13.98,41.08,17.15,35.95s24.93-13.68,31.23-22.28c6.3-8.59-.58-65.67-2.3-71.36h0Z"/>
    <path class="cls-2" d="M440.84,286.81l-13.23-5.59-38.17-1.69-41.81,9.86s5.95,7.25,12.56,13.95,3.64,56.35,3.64,56.35c0,0-22.87,2.49-29.01,6.58s-21.75,45.33-10.75,58.92c11,13.59,36.54,7.44,36.54,7.44l22.41-.76,30.34,1.34s19.78-7.86,21.16-10.71c1.38-2.85,1.09-38.97,1.21-41.58s-4.22-3.97-4.22-3.97l.59-13.37s3.44,.15,5.38-1.22c1.94-1.37,23.83-49.9,22.61-57.81s-19.28-17.74-19.28-17.74h0Z"/>
    <path class="cls-8" d="M338.05,371.21l2.84-16.48c41.5,1.65,76.1,3.47,95.39,8.37-.96,6.15-1.77,10.55-1.17,15.74-23.24-4.74-56.43-6.15-97.06-7.63h0Z"/>
    <path class="cls-9" d="M360.48,293s-4.6-4.41-18.64,3.28c-14.04,7.69-14.5,46.98-17.61,45.25-3.11-1.74-32.62,2.72-36.44,2.55s-7.97,14.35-3.85,22.2c4.12,7.85,72.38,6.07,75.37,3.33s6.19-17.3,8.37-24.88c2.19-7.57-1.41-46.08-7.2-51.72h0Z"/>
    <ellipse class="cls-2" cx="271.47" cy="355.92" rx="11.96" ry="17.06" transform="translate(-126.89 560.09) rotate(-79.8)"/>
    <ellipse class="cls-2" cx="273.82" cy="345.8" rx="4.2" ry="8.06" transform="translate(-137.62 504.77) rotate(-72.75)"/>
    <path class="cls-4" d="M421.55,255.61c-.6-.85-1.32-1.37-2.3-1.09-2.24-.63-3.85-.28-4.17,2.03-1.33-2.77-3.81-2.64-6.67-1.53-2.3-2.78-4.14-2.18-5.79-.26-2.66-.72-4.46,.23-5.31,3.06-.58-2.02-1.8-2.86-3.82-2.24-6.87-.43-11.29,1.97-13.16,7.09-2.43-1.18-4.51-.62-6.2,1.87-1.31,.67-1.52,1.69-1.07,2.92-3.69-.29-6.51,1.22-8.21,5.03-2.14-1.16-3.51-.45-4.31,1.67-2.02,2.06-2.42,4.43-1.88,7.01-2.86-.95-4.86-.2-6.05,2.21-1.88,.43-2.28,1.92-2.05,3.86-3.26,.21-5.73,1.4-6.92,4.14-2.82-.03-5.32,.56-6.43,3.67-1.04,2.32-.92,4.04,.72,4.98,1.38,2.08,2.88,2.22,4.54,.2,1.9,.21,3.1-.55,3.11-2.99,1.67,3.04,4.17,3.15,7.14,1.63,3.08,1.89,5.36,1.33,6.95-1.34,4.86,2.73,8.24,1.73,10.58-1.84,1.78,3.16,4.12,4.84,7.87,2.66,3.8,2.69,6.53,1.86,8.52-1.44,2.62,3.48,5.68,4.05,9.16,1.89,1.51,.3,2.25-.61,2.45-2.36,2.11,2.68,4.57,2.97,7.3,1.48,.82,2.96,2.47,5.02,7.36,3.62,1.34,1.82,2.76,1.55,4.23,.19,2.87,3.1,5.53,2.25,8.13,.36,3.39,3.16,5.99,2.15,8.44,.37,3.45,1.75,6.64,2.58,8.26-2.44,1.34-.11,1.99-.88,1.83-2.39,2.01,1.72,3.95,1.3,5.84-.9,2.51,0,3.34-1.16,2.96-3.16,1.77-2.07,2.27-4.11,.27-6.09,.87-1.72,.45-2.97-1.24-3.76-1.3-2.41-3.16-3.31-5.53-2.64-1.03-2.41-2.7-2.75-4.6-2.34-.78-1.99-2.22-2.97-4.26-3.04,1.15-1.53,1.11-2.77-.47-3.6-.29-3.2-1.87-4.41-4.53-3.99-.58-2.47-2.29-2.87-4.61-2.18,.8-2.27,.06-3.83-1.82-4.86,.31-3.2-1.41-4.82-4.31-5.47l.02,.03Z"/>
    <path class="cls-4" d="M302.86,340.74c-2.68-.84-5.04-.78-7.01,.37-2.35-1.4-5.05-1.68-8.02-1.03-2.47-1.02-3.4-.63-3.52,.52-3.1,.25-4.66,.94-4.13,2.19-2.74,.85-3.38,2.06-3.11,3.43-1.25,1.48-1.82,2.86-.17,3.9-.79,1.77,.08,3.62,1.37,5.49-1.64,1.64-1.98,3.28-.22,4.92-1.7,1.67-2.66,3.4-.24,5.42,.35,1.87,1.72,3.21,5.5,3.3,.17,1.71,2.61,2.52,6.33,2.82,1.39,.49,3.36,.63,6.17,.27,.56,.39,1.32,.6,2.82,.12,2.61-1.92,2.84-3.84,.25-5.76,2.81-1.36,1.86-2.72,.18-4.07,2.19-1.77,1.87-3.66-.96-5.65,1.42-3.23,1.64-6.13-1.25-8.2,1.82-1.6,1.98-3.23,.22-4.92,3.64-.39,5.29-1.55,5.79-3.14h0Z"/>
    <path class="cls-4" d="M438.08,420.32c-5.72-5.72-10.79-5.05-15.51-.98-4.79-1.78-9.12-1.07-13.05,1.75,.49-3.5-2.1-4.38-6.42-3.78-4.77-3.41-11-3.64-18.79-.54-4.25-2.05-8.64-1.91-13.17,.29-.95-3.1-3.21-4.81-7.98-3.85-8.07-2.16-13.75-.67-18,2.99-4.79-4.86-10.54-6.73-18.04-3.13-5.51-.26-6.86,3.25-7.34,7.54-1.53,3.26-.62,6.16,1.91,8.82-2.36,2.71-2.81,5.5-.37,8.43-3.18,1.5-4.22,3.9-4.06,6.81-.99,3.76,.22,6.98,3.33,9.76l114.26,5.05c2.87-1.08,4.39-3.09,3.82-6.52,2.2-.17,2.6-2.02,2.24-4.56,1.57-2.16,2.03-4.41-1.72-7.06,2.9-.84,4.2-2.4,2.28-5.43,2.84-2.51,2.53-5.48,.38-8.72,1.49-3.2-.02-5.4-3.77-6.86h0Z"/>
  </g>
  <g>
    <g>
      <path class="cls-3" d="M365.6,392.07l-105.15,1.57c.44,1.79,.83,6.17,1.13,12.01l108.78,4.8-4.76-18.38Z"/>
      <path class="cls-5" d="M261.59,405.65c1.08,21.1,.98,61.31-2.11,67.82-3.94,8.31,85.06,11.49,85.06,11.49l29.45-60.5-3.63-14.01-108.78-4.8Z"/>
    </g>
    <path class="cls-3" d="M344.54,484.96c6.26-56.04-1.2-149.77-6.8-162.67-5.6-12.9-21.06-89.55,83.58-85.5,95.82,3.71,57.26,91.95,54.12,104.02-3.49,13.44-2.25,122.18-13.62,142.11-1.53,2.69-30.18,10.43-56.4,9.06s-60.89-7.01-60.89-7.01Z"/>
    <ellipse class="cls-3" cx="473.33" cy="387.49" rx="19.92" ry="11.93" transform="translate(65.34 843.26) rotate(-87.47)"/>
    <g>
      <path class="cls-5" d="M341.48,403.31c7.21,.32,13.45-8.33,13.94-19.32,.49-10.99-4.97-20.16-12.18-20.47l-81.74,.54c-.06,0-.11-.02-.17-.02-6.31-.28-11.78,7.48-12.22,17.33s4.33,18.06,10.64,18.34l81.74,3.61Z"/>
      <ellipse class="cls-3" cx="343.22" cy="383.45" rx="19.92" ry="11.93" transform="translate(-55 709.43) rotate(-87.47)"/>
    </g>
  </g>
</svg>